<?xml version="1.0" encoding="UTF-8" standalone="no"?>
<svg
   width="91.455841"
   height="226.77165"
   xml:space="preserve"
   overflow="hidden"
   version="1.1"
   id="svg43"
   sodipodi:docname="clnv-algo.svg"
   inkscape:export-filename="clnv-algo.pdf"
   inkscape:export-xdpi="96"
   inkscape:export-ydpi="96"
   inkscape:version="1.2.2 (732a01da63, 2022-12-09)"
   xmlns:inkscape="http://www.inkscape.org/namespaces/inkscape"
   xmlns:sodipodi="http://sodipodi.sourceforge.net/DTD/sodipodi-0.dtd"
   xmlns="http://www.w3.org/2000/svg"
   xmlns:svg="http://www.w3.org/2000/svg"><sodipodi:namedview
     id="namedview45"
     pagecolor="#505050"
     bordercolor="#eeeeee"
     borderopacity="1"
     inkscape:showpageshadow="0"
     inkscape:pageopacity="0"
     inkscape:pagecheckerboard="0"
     inkscape:deskcolor="#505050"
     showgrid="false"
     inkscape:zoom="11.034942"
     inkscape:cx="85.319887"
     inkscape:cy="127.50407"
     inkscape:window-width="2560"
     inkscape:window-height="1009"
     inkscape:window-x="-8"
     inkscape:window-y="36"
     inkscape:window-maximized="1"
     inkscape:current-layer="svg43" /><defs
     id="defs5"><clipPath
       id="clip0"><rect
         x="1909"
         y="592"
         width="488"
         height="1202"
         id="rect2" /></clipPath></defs><g
     clip-path="url(#clip0)"
     transform="matrix(0.18868156,0,0,0.18868156,-360.28744,-111.71128)"
     id="g41"><path
       d="m 1910.5,1547.5 h 480.71"
       stroke="#000000"
       stroke-width="4.58333"
       stroke-miterlimit="8"
       stroke-dasharray="18.3333, 13.75"
       fill="none"
       fill-rule="evenodd"
       id="path7"
       style="stroke-width:5.29993498;stroke-dasharray:10.59986975,5.29993487;stroke-dashoffset:0" /><path
       d="m 1910.5,1188.5 h 480.71"
       stroke="#000000"
       stroke-width="4.58333"
       stroke-miterlimit="8"
       stroke-dasharray="18.3333, 13.75"
       fill="none"
       fill-rule="evenodd"
       id="path9"
       style="stroke-width:5.29993498;stroke-dasharray:10.59986975,5.29993487;stroke-dashoffset:0" /><path
       d="m 1909.5,824.5 480.71,10e-4"
       stroke="#000000"
       stroke-width="4.58333"
       stroke-miterlimit="8"
       stroke-dasharray="18.3333, 13.75"
       fill="none"
       fill-rule="evenodd"
       id="path11"
       style="stroke-width:5.29993498;stroke-dasharray:10.59986975,5.29993487;stroke-dashoffset:0" /><path
       d="m 1913.5,1349.5 h 480.71"
       stroke="#a5a5a5"
       stroke-width="4.58333"
       stroke-miterlimit="8"
       stroke-dasharray="18.3333, 13.75"
       fill="none"
       fill-rule="evenodd"
       id="path13"
       style="stroke-width:5.29993498;stroke-dasharray:10.59986975,5.29993487;stroke-dashoffset:0" /><path
       d="m 1909.5,1025.5 h 480.71"
       stroke="#a5a5a5"
       stroke-width="4.58333"
       stroke-miterlimit="8"
       stroke-dasharray="18.3333, 13.75"
       fill="none"
       fill-rule="evenodd"
       id="path15"
       style="stroke-width:5.29993498;stroke-dasharray:10.59986975,5.29993487;stroke-dashoffset:0" /><path
       d="m 1990.5,608.442 c 0,-7.148 5.79,-12.942 12.94,-12.942 h 273.12 c 7.15,0 12.94,5.794 12.94,12.942 v 195.116 c 0,7.148 -5.79,12.942 -12.94,12.942 h -273.12 c -7.15,0 -12.94,-5.794 -12.94,-12.942 z"
       stroke="#000000"
       stroke-width="6.875"
       stroke-miterlimit="8"
       fill="#ffe9bd"
       fill-rule="evenodd"
       id="path17"
       style="stroke-width:5.29993498;stroke-dasharray:none" /><path
       d="m 1994.5,1057.01 c 0,-9.67 7.84,-17.51 17.51,-17.51 h 263.98 c 9.67,0 17.51,7.84 17.51,17.51 v 267.98 c 0,9.67 -7.84,17.51 -17.51,17.51 h -263.98 c -9.67,0 -17.51,-7.84 -17.51,-17.51 z"
       stroke="#000000"
       stroke-width="6.875"
       stroke-miterlimit="8"
       fill="#ffe9bd"
       fill-rule="evenodd"
       id="path21"
       style="stroke-width:5.29993498;stroke-dasharray:none" /><path
       d="m 1994.5,1367.27 c 0,-5.95 4.82,-10.77 10.77,-10.77 h 277.45 c 5.96,0 10.78,4.82 10.78,10.77 v 162.45 c 0,5.96 -4.82,10.78 -10.78,10.78 h -277.45 c -5.95,0 -10.77,-4.82 -10.77,-10.78 z"
       stroke="#000000"
       stroke-width="6.875"
       stroke-miterlimit="8"
       fill="#bdffff"
       fill-rule="evenodd"
       id="path25"
       style="stroke-width:5.29993498;stroke-dasharray:none" /><path
       d="m 1993.5,847.275 c 0,-5.951 4.82,-10.775 10.77,-10.775 h 277.45 c 5.96,0 10.78,4.824 10.78,10.775 v 162.455 c 0,5.95 -4.82,10.77 -10.78,10.77 h -277.45 c -5.95,0 -10.77,-4.82 -10.77,-10.77 z"
       stroke="#000000"
       stroke-width="6.875"
       stroke-miterlimit="8"
       fill="#bdffff"
       fill-rule="evenodd"
       id="path31"
       style="stroke-width:5.29993498;stroke-dasharray:none" /><path
       d="m 1995.5,1573.97 c 0,-7.44 6.03,-13.47 13.47,-13.47 h 272.06 c 7.44,0 13.47,6.03 13.47,13.47 v 203.06 c 0,7.44 -6.03,13.47 -13.47,13.47 h -272.06 c -7.44,0 -13.47,-6.03 -13.47,-13.47 z"
       stroke="#000000"
       stroke-width="6.875"
       stroke-miterlimit="8"
       fill="#ffe9bd"
       fill-rule="evenodd"
       id="path37"
       style="stroke-width:5.29993498;stroke-dasharray:none" /><text
       font-family="cmss12, cmss12_MSFontService, sans-serif"
       font-weight="400"
       font-size="50px"
       transform="translate(2041.12,720)"
       id="text19">Tick Rule</text><text
       font-family="cmss12, cmss12_MSFontService, sans-serif"
       font-weight="400"
       font-size="50px"
       transform="translate(2044.56,1205)"
       id="text23">Tick Rule</text><text
       font-family="cmss12, cmss12_MSFontService, sans-serif"
       font-weight="400"
       font-size="50px"
       transform="translate(2080.36,1433)"
       id="text27">Quote </text><text
       font-family="cmss12, cmss12_MSFontService, sans-serif"
       font-weight="400"
       font-size="50px"
       transform="translate(2098.42,1494)"
       id="text29">Rule</text><text
       font-family="cmss12, cmss12_MSFontService, sans-serif"
       font-weight="400"
       font-size="50px"
       transform="translate(2079.22,913)"
       id="text33">Quote </text><text
       font-family="cmss12, cmss12_MSFontService, sans-serif"
       font-weight="400"
       font-size="50px"
       transform="translate(2097.27,973)"
       id="text35">Rule</text><text
       font-family="cmss12, cmss12_MSFontService, sans-serif"
       font-weight="400"
       font-size="50px"
       transform="translate(2045.7,1690)"
       id="text39">Tick Rule</text></g></svg>
