<?xml version="1.0" encoding="UTF-8" standalone="no"?>
<svg
   width="90.551735"
   height="226.77165"
   xml:space="preserve"
   overflow="hidden"
   version="1.1"
   id="svg1929"
   sodipodi:docname="emo-algo.svg"
   inkscape:export-filename="emo-algo.pdf"
   inkscape:export-xdpi="96"
   inkscape:export-ydpi="96"
   inkscape:version="1.2.2 (732a01da63, 2022-12-09)"
   xmlns:inkscape="http://www.inkscape.org/namespaces/inkscape"
   xmlns:sodipodi="http://sodipodi.sourceforge.net/DTD/sodipodi-0.dtd"
   xmlns="http://www.w3.org/2000/svg"
   xmlns:svg="http://www.w3.org/2000/svg"><sodipodi:namedview
     id="namedview1931"
     pagecolor="#505050"
     bordercolor="#eeeeee"
     borderopacity="1"
     inkscape:showpageshadow="0"
     inkscape:pageopacity="0"
     inkscape:pagecheckerboard="0"
     inkscape:deskcolor="#505050"
     showgrid="false"
     inkscape:zoom="2.7314662"
     inkscape:cx="83.2886"
     inkscape:cy="73.586851"
     inkscape:window-width="2560"
     inkscape:window-height="1009"
     inkscape:window-x="-8"
     inkscape:window-y="36"
     inkscape:window-maximized="1"
     inkscape:current-layer="g1927" /><defs
     id="defs1893"><clipPath
       id="clip0"><rect
         x="1292"
         y="585"
         width="488"
         height="1214"
         id="rect1890" /></clipPath></defs><g
     clip-path="url(#clip0)"
     transform="matrix(0.18681631,0,0,0.18681631,-241.46008,-109.29922)"
     id="g1927"><path
       d="m 1293.5,1547.5 h 480.71"
       stroke="#000000"
       stroke-width="4.58333"
       stroke-miterlimit="8"
       stroke-dasharray="18.3333, 13.75"
       fill="none"
       fill-rule="evenodd"
       id="path1895"
       style="stroke-width:5.35285169;stroke-dasharray:21.41138223,16.05856619;stroke-dashoffset:0" /><path
       d="m 1293.5,1188.5 h 480.71"
       stroke="#000000"
       stroke-width="4.58333"
       stroke-miterlimit="8"
       stroke-dasharray="18.3333, 13.75"
       fill="none"
       fill-rule="evenodd"
       id="path1897"
       style="stroke-width:5.35285169;stroke-dasharray:21.41138223,16.05856619;stroke-dashoffset:0" /><path
       d="m 1292.5,824.5 480.71,10e-4"
       stroke="#000000"
       stroke-width="4.58333"
       stroke-miterlimit="8"
       stroke-dasharray="18.3333, 13.75"
       fill="none"
       fill-rule="evenodd"
       id="path1899"
       style="stroke-width:5.35285169;stroke-dasharray:21.41138223,16.05856619;stroke-dashoffset:0" /><path
       d="m 1296.5,1349.5 h 480.71"
       stroke="#a5a5a5"
       stroke-width="4.58333"
       stroke-miterlimit="8"
       stroke-dasharray="18.3333, 13.75"
       fill="none"
       fill-rule="evenodd"
       id="path1901"
       style="stroke-width:5.35285169;stroke-dasharray:21.41138223,16.05856619;stroke-dashoffset:0" /><path
       d="m 1292.5,1025.5 h 480.71"
       stroke="#a5a5a5"
       stroke-width="4.58333"
       stroke-miterlimit="8"
       stroke-dasharray="18.3333, 13.75"
       fill="none"
       fill-rule="evenodd"
       id="path1903"
       style="stroke-width:5.35285169;stroke-dasharray:21.41138223,16.05856619;stroke-dashoffset:0" /><path
       d="m 1373.5,599.099 c 0,-5.854 4.75,-10.599 10.6,-10.599 h 277.8 c 5.85,0 10.6,4.745 10.6,10.599 v 159.802 c 0,5.854 -4.75,10.599 -10.6,10.599 h -277.8 c -5.85,0 -10.6,-4.745 -10.6,-10.599 z"
       stroke="#000000"
       stroke-width="6.875"
       stroke-miterlimit="8"
       fill="#ffe9bd"
       fill-rule="evenodd"
       id="path1905"
       style="stroke-width:5.35285169;stroke-dasharray:none" /><path
       d="m 1373.5,788.887 c 0,-2.975 2.41,-5.387 5.39,-5.387 h 288.22 c 2.98,0 5.39,2.412 5.39,5.387 v 81.225 c 0,2.976 -2.41,5.388 -5.39,5.388 h -288.22 c -2.98,0 -5.39,-2.412 -5.39,-5.388 z"
       stroke="#000000"
       stroke-width="6.875"
       stroke-miterlimit="8"
       fill="#bdffff"
       fill-rule="evenodd"
       id="path1909"
       style="stroke-width:5.35285169;stroke-dasharray:none" /><path
       d="m 1376.5,911.01 c 0,-9.671 7.84,-17.51 17.51,-17.51 h 263.98 c 9.67,0 17.51,7.839 17.51,17.51 v 566.98 c 0,9.67 -7.84,17.51 -17.51,17.51 h -263.98 c -9.67,0 -17.51,-7.84 -17.51,-17.51 z"
       stroke="#000000"
       stroke-width="6.875"
       stroke-miterlimit="8"
       fill="#ffe9bd"
       fill-rule="evenodd"
       id="path1913"
       style="stroke-width:5.35285169;stroke-dasharray:none" /><path
       d="m 1379.5,1513.95 c 0,-3.01 2.44,-5.45 5.45,-5.45 h 289.1 c 3.01,0 5.45,2.44 5.45,5.45 v 82.1 c 0,3.01 -2.44,5.45 -5.45,5.45 h -289.1 c -3.01,0 -5.45,-2.44 -5.45,-5.45 z"
       stroke="#000000"
       stroke-width="6.875"
       stroke-miterlimit="8"
       fill="#bdffff"
       fill-rule="evenodd"
       id="path1917"
       style="stroke-width:5.35285169;stroke-dasharray:none" /><path
       d="m 1379.5,1625.1 c 0,-5.85 4.75,-10.6 10.6,-10.6 h 278.8 c 5.85,0 10.6,4.75 10.6,10.6 v 159.8 c 0,5.85 -4.75,10.6 -10.6,10.6 h -278.8 c -5.85,0 -10.6,-4.75 -10.6,-10.6 z"
       stroke="#000000"
       stroke-width="6.875"
       stroke-miterlimit="8"
       fill="#ffe9bd"
       fill-rule="evenodd"
       id="path1923"
       style="stroke-width:5.35285169;stroke-dasharray:none" /><text
       font-family="cmss12, cmss12_MSFontService, sans-serif"
       font-weight="400"
       font-size="50px"
       transform="translate(1423.3,693)"
       id="text1907">Tick Rule</text><text
       font-family="cmss12, cmss12_MSFontService, sans-serif"
       font-weight="400"
       font-size="46px"
       id="text1911"
       x="1394.2585"
       y="839.22858">Quote Rule</text><text
       font-family="cmss12, cmss12_MSFontService, sans-serif"
       font-weight="400"
       font-size="50px"
       transform="translate(1426.74,1209)"
       id="text1915">Tick Rule</text><text
       font-family="cmss12, cmss12_MSFontService, sans-serif"
       font-weight="400"
       font-size="46px"
       id="text1919"
       x="1401.1285"
       y="1565.2285">Quote Rule </text><text
       font-family="cmss12, cmss12_MSFontService, sans-serif"
       font-weight="400"
       font-size="50px"
       transform="translate(1430.18,1719)"
       id="text1925">Tick Rule</text></g></svg>
