<svg width="1003" height="2145" xmlns="http://www.w3.org/2000/svg" xmlns:xlink="http://www.w3.org/1999/xlink" xml:space="preserve" overflow="hidden"><defs><clipPath id="clip0"><rect x="3023" y="247" width="1003" height="2145"/></clipPath></defs><g clip-path="url(#clip0)" transform="translate(-3023 -247)"><path d="M3227.5 2068.85C3227.5 2058.71 3235.71 2050.5 3245.85 2050.5L3839.15 2050.5C3849.29 2050.5 3857.5 2058.71 3857.5 2068.85L3857.5 2150.15C3857.5 2160.29 3849.29 2168.5 3839.15 2168.5L3245.85 2168.5C3235.71 2168.5 3227.5 2160.29 3227.5 2150.15Z" stroke="#000000" stroke-width="6.875" stroke-miterlimit="8" fill="#EDAECD" fill-rule="evenodd"/><text font-family="Calibri Light,Calibri Light_MSFontService,sans-serif" font-weight="300" font-size="55" transform="matrix(1 0 0 1 3351.72 2127)">Input Embedding</text><path d="M3344.5 1559.31C3344.5 1545.05 3356.05 1533.5 3370.31 1533.5L3737.69 1533.5C3751.95 1533.5 3763.5 1545.05 3763.5 1559.31L3763.5 1673.69C3763.5 1687.95 3751.95 1699.5 3737.69 1699.5L3370.31 1699.5C3356.05 1699.5 3344.5 1687.95 3344.5 1673.69Z" stroke="#000000" stroke-width="6.875" stroke-miterlimit="8" fill="#EFABAA" fill-rule="evenodd"/><text font-family="Calibri Light,Calibri Light_MSFontService,sans-serif" font-weight="300" font-size="55" transform="matrix(1 0 0 1 3429.06 1601)">Multi</text><text font-family="Calibri Light,Calibri Light_MSFontService,sans-serif" font-weight="300" font-size="55" transform="matrix(1 0 0 1 3546.51 1601)">-</text><text font-family="Calibri Light,Calibri Light_MSFontService,sans-serif" font-weight="300" font-size="55" transform="matrix(1 0 0 1 3563.12 1601)">Head</text><text font-family="Calibri Light,Calibri Light_MSFontService,sans-serif" font-weight="300" font-size="55" transform="matrix(1 0 0 1 3401.38 1667)">Self</text><text font-family="Calibri Light,Calibri Light_MSFontService,sans-serif" font-weight="300" font-size="55" transform="matrix(1 0 0 1 3481.58 1667)">-</text><text font-family="Calibri Light,Calibri Light_MSFontService,sans-serif" font-weight="300" font-size="55" transform="matrix(1 0 0 1 3498.2 1667)">Attention</text><path d="M3344.5 1419.03C3344.5 1411.56 3350.56 1405.5 3358.03 1405.5L3750.97 1405.5C3758.44 1405.5 3764.5 1411.56 3764.5 1419.03L3764.5 1478.97C3764.5 1486.44 3758.44 1492.5 3750.97 1492.5L3358.03 1492.5C3350.56 1492.5 3344.5 1486.44 3344.5 1478.97Z" stroke="#000000" stroke-width="6.875" stroke-miterlimit="8" fill="#CCD497" fill-rule="evenodd"/><text font-family="Calibri Light,Calibri Light_MSFontService,sans-serif" font-weight="300" font-size="50" transform="matrix(1 0 0 1 3426.77 1465)">Add &amp; Norm</text><path d="M3343.5 1236C3343.5 1225.78 3351.78 1217.5 3362 1217.5L3745 1217.5C3755.22 1217.5 3763.5 1225.78 3763.5 1236L3763.5 1318C3763.5 1328.22 3755.22 1336.5 3745 1336.5L3362 1336.5C3351.78 1336.5 3343.5 1328.22 3343.5 1318Z" stroke="#000000" stroke-width="6.875" stroke-miterlimit="8" fill="#A8D1EE" fill-rule="evenodd"/><text font-family="Calibri Light,Calibri Light_MSFontService,sans-serif" font-weight="300" font-size="50" transform="matrix(1 0 0 1 3413.59 1293)">Feed Forward</text><path d="M3343.5 1097.18C3343.5 1089.63 3349.63 1083.5 3357.18 1083.5L3749.82 1083.5C3757.37 1083.5 3763.5 1089.63 3763.5 1097.18L3763.5 1157.82C3763.5 1165.37 3757.37 1171.5 3749.82 1171.5L3357.18 1171.5C3349.63 1171.5 3343.5 1165.37 3343.5 1157.82Z" stroke="#000000" stroke-width="6.875" stroke-miterlimit="8" fill="#CCD497" fill-rule="evenodd"/><text font-family="Calibri Light,Calibri Light_MSFontService,sans-serif" font-weight="300" font-size="50" transform="matrix(1 0 0 1 3512.13 1144)">Add</text><path d="M2.29167-1.01571e-05 2.29193 58.5086-2.29141 58.5086-2.29167 1.01571e-05ZM13.7502 53.9252 0.000360892 81.4253-13.7498 53.9253Z" transform="matrix(1 0 0 -1 3542.5 2252.93)"/><path d="M3237.5 991.944C3237.5 972.921 3252.92 957.5 3271.94 957.5L3793.06 957.5C3812.08 957.5 3827.5 972.921 3827.5 991.944L3827.5 1846.06C3827.5 1865.08 3812.08 1880.5 3793.06 1880.5L3271.94 1880.5C3252.92 1880.5 3237.5 1865.08 3237.5 1846.06Z" stroke="#000000" stroke-width="4.58333" stroke-miterlimit="8" fill="none" fill-rule="evenodd"/><text font-family="Calibri Light,Calibri Light_MSFontService,sans-serif" font-weight="300" font-size="64" transform="matrix(1 0 0 1 3089.52 2336)">c</text><text font-family="Calibri Light,Calibri Light_MSFontService,sans-serif" font-weight="300" font-size="64" transform="matrix(1 0 0 1 3116.4 2336)">ategorical</text><text font-family="Calibri Light,Calibri Light_MSFontService,sans-serif" font-weight="300" font-size="64" transform="matrix(1 0 0 1 3384.07 2336)">and </text><text font-family="Calibri Light,Calibri Light_MSFontService,sans-serif" font-weight="300" font-size="64" transform="matrix(1 0 0 1 3495.21 2336)">continuous</text><text font-family="Calibri Light,Calibri Light_MSFontService,sans-serif" font-weight="300" font-size="64" transform="matrix(1 0 0 1 3795.33 2336)">inputs</text><path d="M2.29167-1.78221e-05 2.29185 23.489-2.29148 23.4891-2.29167 1.78221e-05ZM13.7501 18.9056 0.000360892 46.4057-13.7499 18.9058Z" transform="matrix(1 0 0 -1 3553.5 1217.91)"/><path d="M2.29167-2.0154e-05 2.29183 18.1197-2.29151 18.1197-2.29167 2.0154e-05ZM13.7501 13.5362 0.000360892 41.0364-13.7499 13.5365Z" transform="matrix(1 0 0 -1 3554.5 1533.54)"/><path d="M0-2.29167 31.5096-2.29167 31.5096 271.993 29.2179 269.701 277.578 269.701 275.286 271.993 275.286 233.893 279.87 233.893 279.87 274.285 26.9263 274.285 26.9263 0 29.2179 2.29167 0 2.29167ZM263.828 238.477 277.578 210.977 291.328 238.477Z" transform="matrix(-1.83697e-16 -1 -1 1.83697e-16 3554.48 1405.08)"/><path d="M0-2.29167 262.084-2.29167 262.084 261.68 259.793 259.388 601.233 259.388 598.942 261.68 598.942 221.003 603.525 221.003 603.525 263.972 257.501 263.972 257.501 0 259.793 2.29167 0 2.29167ZM587.483 225.586 601.233 198.086 614.983 225.586Z" transform="matrix(-1.83697e-16 -1 -1 1.83697e-16 3542.59 2050.73)"/><text font-family="Calibri Light,Calibri Light_MSFontService,sans-serif" font-weight="300" font-size="64" transform="matrix(1 0 0 1 3062.02 1406)">N</text><text font-family="Calibri Light,Calibri Light_MSFontService,sans-serif" font-weight="300" font-size="64" transform="matrix(1 0 0 1 3102.7 1406)">×</text><path d="M0-2.29167 123.457-2.29167 123.605 68.4691 119.022 68.4787 118.879 0.00479166 121.171 2.29167 0 2.29167ZM134.914 63.4633 122.03 91.3794 107.427 64.3223Z" transform="matrix(1 0 0 -1 3542.5 1791.88)"/><path d="M2.29167-9.29912e-06 2.29193 66.0213-2.2914 66.0213-2.29167 9.29912e-06ZM13.7502 61.4379 0.000360892 88.938-13.7498 61.438Z" transform="matrix(1 0 0 -1 3542.5 1790.44)"/><text font-family="Calibri Light,Calibri Light_MSFontService,sans-serif" font-weight="300" font-size="50" transform="matrix(1 0 0 1 3607.72 1757)">V</text><text font-family="Calibri Light,Calibri Light_MSFontService,sans-serif" font-weight="300" font-size="50" transform="matrix(1 0 0 1 3371.4 1759)">K</text><text font-family="Calibri Light,Calibri Light_MSFontService,sans-serif" font-weight="300" font-size="50" transform="matrix(1 0 0 1 3481.39 1758)">Q</text><path d="M3550.85 1083.93 3549.37 880.433 3553.96 880.4 3555.43 1083.9ZM3537.95 885.099 3551.5 857.5 3565.45 884.9Z"/><text font-family="Calibri Light,Calibri Light_MSFontService,sans-serif" font-weight="300" font-size="64" transform="matrix(1 0 0 1 3443.54 327)">Output</text><text font-family="Calibri Light,Calibri Light_MSFontService,sans-serif" font-weight="300" font-size="64" transform="matrix(1 0 0 1 3376.6 404)">Probabilities</text><path d="M3340.5 635.026C3340.5 627.556 3346.56 621.5 3354.03 621.5L3746.97 621.5C3754.44 621.5 3760.5 627.556 3760.5 635.026L3760.5 694.974C3760.5 702.444 3754.44 708.5 3746.97 708.5L3354.03 708.5C3346.56 708.5 3340.5 702.444 3340.5 694.974Z" stroke="#000000" stroke-width="6.875" stroke-miterlimit="8" fill="#FFFF99" fill-rule="evenodd"/><text font-family="Calibri Light,Calibri Light_MSFontService,sans-serif" font-weight="300" font-size="50" transform="matrix(1 0 0 1 3488.36 681)">Linear</text><path d="M3340.5 487.181C3340.5 479.625 3346.63 473.5 3354.18 473.5L3746.82 473.5C3754.37 473.5 3760.5 479.625 3760.5 487.181L3760.5 547.819C3760.5 555.375 3754.37 561.5 3746.82 561.5L3354.18 561.5C3346.63 561.5 3340.5 555.375 3340.5 547.819Z" stroke="#000000" stroke-width="6.875" stroke-miterlimit="8" fill="#D2C4B2" fill-rule="evenodd"/><text font-family="Calibri Light,Calibri Light_MSFontService,sans-serif" font-weight="300" font-size="50" transform="matrix(1 0 0 1 3467.44 533)">Softmax</text><path d="M2.29167-1.37483e-05 2.29189 37.2394-2.29144 37.2394-2.29167 1.37483e-05ZM13.7502 32.656 0.000360892 60.1561-13.7498 32.6562Z" transform="matrix(1 0 0 -1 3550.5 621.656)"/><path d="M2.29167-1.43705e-05 2.29188 34.6348-2.29145 34.6349-2.29167 1.43705e-05ZM13.7502 30.0514 0.000360892 57.5515-13.7498 30.0516Z" transform="matrix(1 0 0 -1 3551.5 767.052)"/><path d="M3341.5 783.181C3341.5 775.625 3347.63 769.5 3355.18 769.5L3747.82 769.5C3755.37 769.5 3761.5 775.625 3761.5 783.181L3761.5 843.819C3761.5 851.375 3755.37 857.5 3747.82 857.5L3355.18 857.5C3347.63 857.5 3341.5 851.375 3341.5 843.819Z" stroke="#000000" stroke-width="6.875" stroke-miterlimit="8" fill="#CCD497" fill-rule="evenodd"/><text font-family="Calibri Light,Calibri Light_MSFontService,sans-serif" font-weight="300" font-size="50" transform="matrix(1 0 0 1 3493.31 830)">Norm</text><path d="M2.29167-2.20601e-05 2.29181 14.5739-2.29153 14.5739-2.29167 2.20601e-05ZM13.7501 9.99045 0.000360892 37.4906-13.7499 9.99072Z" transform="matrix(1 0 0 -1 3554.5 1376.99)"/><path d="M2.29167-9.16549e-06 2.29194 67.318-2.2914 67.318-2.29167 9.16549e-06ZM13.7503 62.7346 0.000360892 90.2346-13.7497 62.7347Z" transform="matrix(1 0 0 -1 3433.5 1788.73)"/></g></svg>