<?xml version="1.0" encoding="UTF-8" standalone="no"?>
<svg
   width="169.21996"
   height="347.31705"
   xml:space="preserve"
   overflow="hidden"
   version="1.1"
   id="svg443"
   sodipodi:docname="fttransformer.svg"
   inkscape:version="1.2.2 (732a01da63, 2022-12-09)"
   inkscape:export-filename="fttransformer.pdf"
   inkscape:export-xdpi="96"
   inkscape:export-ydpi="96"
   xmlns:inkscape="http://www.inkscape.org/namespaces/inkscape"
   xmlns:sodipodi="http://sodipodi.sourceforge.net/DTD/sodipodi-0.dtd"
   xmlns="http://www.w3.org/2000/svg"
   xmlns:svg="http://www.w3.org/2000/svg"><sodipodi:namedview
     id="namedview445"
     pagecolor="#505050"
     bordercolor="#eeeeee"
     borderopacity="1"
     inkscape:showpageshadow="0"
     inkscape:pageopacity="0"
     inkscape:pagecheckerboard="0"
     inkscape:deskcolor="#505050"
     showgrid="false"
     inkscape:zoom="1.7657082"
     inkscape:cx="8.7783473"
     inkscape:cy="178.39867"
     inkscape:window-width="2560"
     inkscape:window-height="1009"
     inkscape:window-x="-8"
     inkscape:window-y="-8"
     inkscape:window-maximized="1"
     inkscape:current-layer="svg443" /><defs
     id="defs341"><clipPath
       clipPathUnits="userSpaceOnUse"
       id="clipPath782"><g
         id="g786"><rect
           x="-18.60881"
           y="-0.027554139"
           width="430.28082"
           height="827.93787"
           id="rect784"
           style="stroke-width:0.440861" /></g></clipPath><clipPath
       clipPathUnits="userSpaceOnUse"
       id="clipPath788"><g
         id="g792"><rect
           x="-18.60881"
           y="-0.027554139"
           width="430.28082"
           height="827.93787"
           id="rect790"
           style="stroke-width:0.440861" /></g></clipPath><clipPath
       clipPathUnits="userSpaceOnUse"
       id="clipPath794"><g
         id="g798"><rect
           x="-18.60881"
           y="-0.027554139"
           width="430.28082"
           height="827.93787"
           id="rect796"
           style="stroke-width:0.440861" /></g></clipPath><clipPath
       clipPathUnits="userSpaceOnUse"
       id="clipPath800"><g
         id="g804"><rect
           x="-18.60881"
           y="-0.027554139"
           width="430.28082"
           height="827.93787"
           id="rect802"
           style="stroke-width:0.440861" /></g></clipPath><clipPath
       clipPathUnits="userSpaceOnUse"
       id="clipPath806"><g
         id="g810"><rect
           x="-18.60881"
           y="-0.027554139"
           width="430.28082"
           height="827.93787"
           id="rect808"
           style="stroke-width:0.440861" /></g></clipPath><clipPath
       clipPathUnits="userSpaceOnUse"
       id="clipPath812"><g
         id="g816"><rect
           x="-18.60881"
           y="-0.027554139"
           width="430.28082"
           height="827.93787"
           id="rect814"
           style="stroke-width:0.440861" /></g></clipPath><clipPath
       clipPathUnits="userSpaceOnUse"
       id="clipPath818"><g
         id="g822"><rect
           x="-18.60881"
           y="-0.027554139"
           width="430.28082"
           height="827.93787"
           id="rect820"
           style="stroke-width:0.440861" /></g></clipPath><clipPath
       clipPathUnits="userSpaceOnUse"
       id="clipPath824"><g
         id="g828"><rect
           x="-18.60881"
           y="-0.027554139"
           width="430.28082"
           height="827.93787"
           id="rect826"
           style="stroke-width:0.440861" /></g></clipPath><clipPath
       clipPathUnits="userSpaceOnUse"
       id="clipPath830"><g
         id="g834"><rect
           x="-18.60881"
           y="-0.027554139"
           width="430.28082"
           height="827.93787"
           id="rect832"
           style="stroke-width:0.440861" /></g></clipPath><clipPath
       clipPathUnits="userSpaceOnUse"
       id="clipPath836"><g
         id="g840"><rect
           x="-18.60881"
           y="-0.027554139"
           width="430.28082"
           height="827.93787"
           id="rect838"
           style="stroke-width:0.440861" /></g></clipPath><clipPath
       clipPathUnits="userSpaceOnUse"
       id="clipPath842"><g
         id="g846"><rect
           x="-18.60881"
           y="-0.027554139"
           width="430.28082"
           height="827.93787"
           id="rect844"
           style="stroke-width:0.440861" /></g></clipPath><clipPath
       clipPathUnits="userSpaceOnUse"
       id="clipPath848"><g
         id="g852"><rect
           x="-18.60881"
           y="-0.027554139"
           width="430.28082"
           height="827.93787"
           id="rect850"
           style="stroke-width:0.440861" /></g></clipPath><clipPath
       clipPathUnits="userSpaceOnUse"
       id="clipPath854"><g
         id="g858"><rect
           x="-18.60881"
           y="-0.027554139"
           width="430.28082"
           height="827.93787"
           id="rect856"
           style="stroke-width:0.440861" /></g></clipPath><clipPath
       clipPathUnits="userSpaceOnUse"
       id="clipPath860"><g
         id="g864"><rect
           x="-18.60881"
           y="-0.027554139"
           width="430.28082"
           height="827.93787"
           id="rect862"
           style="stroke-width:0.440861" /></g></clipPath><clipPath
       clipPathUnits="userSpaceOnUse"
       id="clipPath866"><g
         id="g870"><rect
           x="-18.60881"
           y="-0.027554139"
           width="430.28082"
           height="827.93787"
           id="rect868"
           style="stroke-width:0.440861" /></g></clipPath><clipPath
       clipPathUnits="userSpaceOnUse"
       id="clipPath872"><g
         id="g876"><rect
           x="-18.60881"
           y="-0.027554139"
           width="430.28082"
           height="827.93787"
           id="rect874"
           style="stroke-width:0.440861" /></g></clipPath><clipPath
       clipPathUnits="userSpaceOnUse"
       id="clipPath878"><g
         id="g882"><rect
           x="-18.60881"
           y="-0.027554139"
           width="430.28082"
           height="827.93787"
           id="rect880"
           style="stroke-width:0.440861" /></g></clipPath><clipPath
       clipPathUnits="userSpaceOnUse"
       id="clipPath884"><g
         id="g888"><rect
           x="-18.60881"
           y="-0.027554139"
           width="430.28082"
           height="827.93787"
           id="rect886"
           style="stroke-width:0.440861" /></g></clipPath><clipPath
       clipPathUnits="userSpaceOnUse"
       id="clipPath890"><g
         id="g894"><rect
           x="-18.60881"
           y="-0.027554139"
           width="430.28082"
           height="827.93787"
           id="rect892"
           style="stroke-width:0.440861" /></g></clipPath><clipPath
       clipPathUnits="userSpaceOnUse"
       id="clipPath896"><g
         id="g900"><rect
           x="-18.60881"
           y="-0.027554139"
           width="430.28082"
           height="827.93787"
           id="rect898"
           style="stroke-width:0.440861" /></g></clipPath><clipPath
       clipPathUnits="userSpaceOnUse"
       id="clipPath902"><g
         id="g906"><rect
           x="-18.60881"
           y="-0.027554139"
           width="430.28082"
           height="827.93787"
           id="rect904"
           style="stroke-width:0.440861" /></g></clipPath><clipPath
       clipPathUnits="userSpaceOnUse"
       id="clipPath908"><g
         id="g912"><rect
           x="-18.60881"
           y="-0.027554139"
           width="430.28082"
           height="827.93787"
           id="rect910"
           style="stroke-width:0.440861" /></g></clipPath><clipPath
       clipPathUnits="userSpaceOnUse"
       id="clipPath914"><g
         id="g918"><rect
           x="-18.60881"
           y="-0.027554139"
           width="430.28082"
           height="827.93787"
           id="rect916"
           style="stroke-width:0.440861" /></g></clipPath><clipPath
       clipPathUnits="userSpaceOnUse"
       id="clipPath920"><g
         id="g924"><rect
           x="-18.60881"
           y="-0.027554139"
           width="430.28082"
           height="827.93787"
           id="rect922"
           style="stroke-width:0.440861" /></g></clipPath><clipPath
       clipPathUnits="userSpaceOnUse"
       id="clipPath926"><g
         id="g930"><rect
           x="-18.60881"
           y="-0.027554139"
           width="430.28082"
           height="827.93787"
           id="rect928"
           style="stroke-width:0.440861" /></g></clipPath></defs><path
     d="m 59.203243,685.44593 c 0,-4.47033 3.619473,-8.0898 8.089809,-8.0898 H 328.85617 c 4.47034,0 8.08981,3.61947 8.08981,8.0898 v 35.84204 c 0,4.47034 -3.61947,8.08981 -8.08981,8.08981 H 67.293052 c -4.470336,0 -8.089809,-3.61947 -8.089809,-8.08981 z"
     stroke="#000000"
     stroke-width="3.03092"
     stroke-miterlimit="8"
     fill="#edaecd"
     fill-rule="evenodd"
     id="path343"
     clip-path="url(#clipPath926)"
     transform="matrix(0.44772964,0,0,0.44772964,2.3280773e-5,-14.560734)"
     style="stroke-width:2.23349;stroke-dasharray:none" /><path
     d="m 108.57973,460.36851 c 0,-6.28669 5.09195,-11.37864 11.37864,-11.37864 H 281.4812 c 6.28668,0 11.37863,5.09195 11.37863,11.37864 v 50.42574 c 0,6.28668 -5.09195,11.37863 -11.37863,11.37863 H 119.95837 c -6.28669,0 -11.37864,-5.09195 -11.37864,-11.37863 z"
     stroke="#000000"
     stroke-width="3.03092"
     stroke-miterlimit="8"
     fill="#efabaa"
     fill-rule="evenodd"
     id="path347"
     clip-path="url(#clipPath920)"
     transform="matrix(0.44772964,0,0,0.44772964,2.3280773e-5,-14.560734)"
     style="stroke-width:2.23349;stroke-dasharray:none" /><path
     d="m 108.13887,398.96532 c 0,-3.29324 2.67162,-5.96486 5.96485,-5.96486 h 173.23212 c 3.29323,0 5.96485,2.67162 5.96485,5.96486 v 26.42524 c 0,3.29323 -2.67162,5.96485 -5.96485,5.96485 H 114.10372 c -3.29323,0 -5.96485,-2.67162 -5.96485,-5.96485 z"
     stroke="#000000"
     stroke-width="3.03092"
     stroke-miterlimit="8"
     fill="#ccd497"
     fill-rule="evenodd"
     id="path361"
     clip-path="url(#clipPath914)"
     transform="matrix(0.44772964,0,0,0.44772964,2.3280773e-5,-14.560734)"
     style="stroke-width:2.23349;stroke-dasharray:none" /><path
     d="m 108.13887,273.30657 c 0,-4.5056 3.65033,-8.15594 8.15594,-8.15594 h 168.84995 c 4.5056,0 8.15593,3.65034 8.15593,8.15594 v 36.15064 c 0,4.50561 -3.65033,8.15594 -8.15593,8.15594 H 116.29481 c -4.50561,0 -8.15594,-3.65033 -8.15594,-8.15594 z"
     stroke="#000000"
     stroke-width="3.03092"
     stroke-miterlimit="8"
     fill="#a8d1ee"
     fill-rule="evenodd"
     id="path365"
     clip-path="url(#clipPath908)"
     transform="matrix(0.44772964,0,0,0.44772964,2.3280773e-5,-14.560734)"
     style="stroke-width:2.23349;stroke-dasharray:none" /><path
     d="m 108.13887,213.36087 c 0,-3.29324 2.67162,-5.96309 5.96485,-5.96309 h 173.23212 c 3.29323,0 5.96485,2.66985 5.96485,5.96309 v 26.427 c 0,3.29324 -2.67162,5.96486 -5.96485,5.96486 H 114.10372 c -3.29323,0 -5.96485,-2.67162 -5.96485,-5.96486 z"
     stroke="#000000"
     stroke-width="3.03092"
     stroke-miterlimit="8"
     fill="#ccd497"
     fill-rule="evenodd"
     id="path369"
     clip-path="url(#clipPath902)"
     transform="matrix(0.44772964,0,0,0.44772964,2.3280773e-5,-14.560734)"
     style="stroke-width:2.23349;stroke-dasharray:none" /><path
     d="m 199.08492,769.58435 1.2e-4,-30.10396 -2.02062,-5e-5 -1.2e-4,30.10401 z m 5.05167,-28.08336 -6.06182,-12.12369 -6.06187,12.12364 z"
     id="path373"
     style="stroke-width:0.440861"
     clip-path="url(#clipPath896)"
     transform="matrix(0.44772964,0,0,0.44772964,2.3280773e-5,-14.560734)" /><path
     d="m 62.289274,210.67955 c 0,-8.38651 6.798084,-15.18503 15.18327,-15.18503 H 307.21428 c 8.38519,0 15.18327,6.79852 15.18327,15.18503 v 432.97712 c 0,8.38519 -6.79808,15.18327 -15.18327,15.18327 H 77.472544 c -8.385186,0 -15.18327,-6.79808 -15.18327,-15.18327 z"
     stroke="#000000"
     stroke-width="2.02061"
     stroke-miterlimit="8"
     fill="none"
     fill-rule="evenodd"
     id="path375"
     clip-path="url(#clipPath890)"
     transform="matrix(0.44772964,0,0,0.44772964,2.3280773e-5,-14.560734)"
     style="stroke-width:2.23349;stroke-dasharray:none" /><path
     d="m 201.73009,265.0757 7e-5,-9.21909 -2.02061,-4e-5 -8e-5,9.21911 z m 5.05158,-7.19844 -6.06173,-12.12374 -6.06196,12.12365 z"
     id="path385"
     style="stroke-width:0.440861"
     clip-path="url(#clipPath884)"
     transform="matrix(0.44772964,0,0,0.44772964,2.3280773e-5,-14.560734)" /><path
     d="m 201.73009,448.94139 7e-5,-7.4831 -2.02062,-5e-5 -7e-5,7.48313 z m 5.05158,-5.46246 -6.06173,-12.12374 -6.06196,12.12365 z"
     id="path387"
     style="stroke-width:0.440861"
     clip-path="url(#clipPath878)"
     transform="matrix(0.44772964,0,0,0.44772964,2.3280773e-5,-14.560734)" /><path
     d="m 201.783,392.67864 v -7.07111 H 71.768683 l 1.010454,1.01028 V 226.35703 l -1.010454,1.01001 h 26.268291 v -2.02046 H 70.758669 V 387.62813 H 200.77269 l -1.01031,-1.01032 v 6.06083 z M 96.016505,232.41888 108.1402,226.35703 96.016505,220.29518 Z"
     id="path389"
     style="stroke-width:0.440861"
     clip-path="url(#clipPath872)"
     transform="matrix(0.44772964,0,0,0.44772964,2.3280773e-5,-14.560734)" /><path
     d="m 196.75203,564.35084 h 54.42744 l 0.0652,-31.1957 -2.02046,-0.004 -0.0631,30.18751 1.01046,-1.0082 h -53.41963 z m 59.47839,-28.98883 -5.68006,-12.30714 -6.4379,11.92843 z"
     id="path395"
     style="stroke-width:0.440861"
     clip-path="url(#clipPath866)"
     transform="matrix(0.44772964,0,0,0.44772964,2.3280773e-5,-14.560734)" /><path
     d="m 199.08492,563.14655 1.1e-4,-29.10625 h -2.02061 l -1.2e-4,29.10625 z m 5.05162,-27.0856 -6.06177,-12.12374 -6.06192,12.12369 z"
     id="path397"
     style="stroke-width:0.440861"
     clip-path="url(#clipPath860)"
     transform="matrix(0.44772964,0,0,0.44772964,2.3280773e-5,-14.560734)" /><path
     d="m 201.73009,207.35413 1.1e-4,-26.4449 -2.02061,-4e-5 -1.2e-4,26.44494 z m 5.05162,-24.4243 -6.06177,-12.12369 -6.06192,12.12365 z"
     id="path405"
     style="stroke-width:0.440861"
     clip-path="url(#clipPath854)"
     transform="matrix(0.44772964,0,0,0.44772964,2.3280773e-5,-14.560734)" /><path
     d="m 107.69801,72.726054 c 0,-3.293235 2.67162,-5.963092 5.96485,-5.963092 h 173.23212 c 3.29323,0 5.96485,2.669857 5.96485,5.963092 v 26.428765 c 0,3.293231 -2.67162,5.963091 -5.96485,5.963091 H 113.66286 c -3.29323,0 -5.96485,-2.66986 -5.96485,-5.963091 z"
     stroke="#000000"
     stroke-width="3.03092"
     stroke-miterlimit="8"
     fill="#ffff99"
     fill-rule="evenodd"
     id="path407"
     clip-path="url(#clipPath848)"
     transform="matrix(0.44772964,0,0,0.44772964,2.3280773e-5,-14.560734)"
     style="stroke-width:2.23349;stroke-dasharray:none" /><path
     d="m 201.73009,130.93124 9e-5,-15.26916 -2.02061,-4e-5 -1e-4,15.26918 z m 5.05162,-13.24851 -6.06177,-12.12374 -6.06192,12.12365 z"
     id="path417"
     style="stroke-width:0.440861"
     clip-path="url(#clipPath830)"
     transform="matrix(0.44772964,0,0,0.44772964,2.3280773e-5,-14.560734)" /><path
     d="m 108.13887,138.04189 c 0,-3.33115 2.70248,-6.03143 6.03098,-6.03143 h 173.09986 c 3.3285,0 6.03098,2.70028 6.03098,6.03143 v 26.73296 c 0,3.33115 -2.70248,6.03142 -6.03098,6.03142 H 114.16985 c -3.3285,0 -6.03098,-2.70027 -6.03098,-6.03142 z"
     stroke="#000000"
     stroke-width="3.03092"
     stroke-miterlimit="8"
     fill="#ccd497"
     fill-rule="evenodd"
     id="path419"
     clip-path="url(#clipPath824)"
     transform="matrix(0.44772964,0,0,0.44772964,2.3280773e-5,-14.560734)"
     style="stroke-width:2.23349;stroke-dasharray:none" /><path
     d="m 201.73009,392.92994 8e-5,-11.87118 -2.02061,-4e-5 -9e-5,11.8712 z m 5.05162,-9.85053 -6.06177,-12.12374 -6.06192,12.12365 z"
     id="path423"
     style="stroke-width:0.440861"
     clip-path="url(#clipPath818)"
     transform="matrix(0.44772964,0,0,0.44772964,2.3280773e-5,-14.560734)" /><path
     d="m 105.4937,593.89223 c 0,-3.32851 2.70248,-6.03099 6.03099,-6.03099 h 173.09985 c 3.3285,0 6.03099,2.70248 6.03099,6.03099 v 26.73384 c 0,3.3285 -2.70249,6.03098 -6.03099,6.03098 H 111.52469 c -3.32851,0 -6.03099,-2.70248 -6.03099,-6.03098 z"
     stroke="#000000"
     stroke-width="3.03092"
     stroke-miterlimit="8"
     fill="#ccd497"
     fill-rule="evenodd"
     id="path425"
     clip-path="url(#clipPath812)"
     transform="matrix(0.44772964,0,0,0.44772964,2.3280773e-5,-14.560734)"
     style="stroke-width:2.23349;stroke-dasharray:none" /><path
     d="m 108.13887,338.19256 c 0,-3.3285 2.70248,-6.03098 6.03098,-6.03098 h 173.09986 c 3.3285,0 6.03098,2.70248 6.03098,6.03098 v 26.73384 c 0,3.32851 -2.70248,6.03099 -6.03098,6.03099 H 114.16985 c -3.3285,0 -6.03098,-2.70248 -6.03098,-6.03099 z"
     stroke="#000000"
     stroke-width="3.03092"
     stroke-miterlimit="8"
     fill="#ccd497"
     fill-rule="evenodd"
     id="path429"
     clip-path="url(#clipPath806)"
     transform="matrix(0.44772964,0,0,0.44772964,2.3280773e-5,-14.560734)"
     style="stroke-width:2.23349;stroke-dasharray:none" /><path
     d="m 201.73009,332.32471 5e-5,-4.60922 -2.02062,-4e-5 -5e-5,4.60924 z m 5.05158,-2.58856 -6.06173,-12.12375 -6.06196,12.12362 z"
     id="path433"
     style="stroke-width:0.440861"
     clip-path="url(#clipPath800)"
     transform="matrix(0.44772964,0,0,0.44772964,2.3280773e-5,-14.560734)" /><path
     d="m 199.08492,677.40462 1.3e-4,-40.64602 h -2.02062 l -1.3e-4,40.64602 z m 5.05167,-38.62537 -6.06182,-12.12352 -6.06187,12.12347 z"
     id="path435"
     style="stroke-width:0.440861"
     clip-path="url(#clipPath794)"
     transform="matrix(0.44772964,0,0,0.44772964,2.3280773e-5,-14.560734)" /><path
     d="M 199.09374,677.01666 V 650.59777 H 70.8486 l 1.010013,1.01028 V 411.95618 L 70.8486,412.9662 h 27.187046 v -2.02047 H 69.838145 V 652.61837 H 198.08343 l -1.01031,-1.01032 v 25.40861 z M 96.015178,418.01803 108.13887,411.95618 96.015178,405.89434 Z"
     id="path437"
     style="stroke-width:0.440861"
     clip-path="url(#clipPath788)"
     transform="matrix(0.44772964,0,0,0.44772964,2.3280773e-5,-14.560734)" /><path
     d="m 198.90417,587.7863 v -25.48206 h -51.08821 l 1.01046,1.01028 v -31.03841 h -2.02047 v 32.04873 h 51.08791 l -1.01031,-1.01032 v 24.47178 z m -45.02614,-53.48928 -6.06207,-12.12369 -6.06184,12.12369 z"
     id="path439"
     style="stroke-width:0.440861"
     clip-path="url(#clipPath782)"
     transform="matrix(0.44772964,0,0,0.44772964,2.3280773e-5,-14.560734)" /><text
     font-family="'Calibri Light', 'Calibri Light_MSFontService', sans-serif"
     font-weight="300"
     font-size="10.8563px"
     id="text345"
     x="51.111332"
     y="303.81177"
     style="stroke-width:0.197387">Input Embedding</text><text
     font-family="'Calibri Light', 'Calibri Light_MSFontService', sans-serif"
     font-weight="300"
     font-size="10.8563px"
     id="text349"
     x="65.206726"
     y="199.78894"
     style="stroke-width:0.197387">Multi-Head</text><text
     font-family="'Calibri Light', 'Calibri Light_MSFontService', sans-serif"
     font-weight="300"
     font-size="9.86935px"
     id="text363"
     x="81.773392"
     y="173.14174"
     style="stroke-width:0.197387">Add</text><text
     font-family="'Calibri Light', 'Calibri Light_MSFontService', sans-serif"
     font-weight="300"
     font-size="9.86935px"
     id="text367"
     x="62.322895"
     y="119.05775"
     style="stroke-width:0.197387">Feed Forward</text><text
     font-family="'Calibri Light', 'Calibri Light_MSFontService', sans-serif"
     font-weight="300"
     font-size="9.86935px"
     id="text371"
     x="81.773392"
     y="90.041908"
     style="stroke-width:0.197387">Add</text><text
     font-family="'Calibri Light', 'Calibri Light_MSFontService', sans-serif"
     font-weight="300"
     font-size="12.6327px"
     id="text377"
     x="-0.55662793"
     y="345.06561"
     style="stroke-width:0.197387">categorical and continuous inputs</text><text
     font-family="'Calibri Light', 'Calibri Light_MSFontService', sans-serif"
     font-weight="300"
     font-size="12.6327px"
     id="text377-5"
     x="76.441483"
     y="8.5986252"
     style="stroke-width:0.197387">logits</text><text
     font-family="'Calibri Light', 'Calibri Light_MSFontService', sans-serif"
     font-weight="300"
     font-size="12.6327px"
     id="text391"
     x="-0.64150429"
     y="161.49591"
     style="stroke-width:0.197387">$L\times$</text><text
     font-family="'Calibri Light', 'Calibri Light_MSFontService', sans-serif"
     font-weight="300"
     font-size="9.86935px"
     id="text409"
     x="77.405228"
     y="27.075535"
     style="stroke-width:0.197387">Linear</text><text
     font-family="'Calibri Light', 'Calibri Light_MSFontService', sans-serif"
     font-weight="300"
     font-size="9.86935px"
     id="text421"
     x="78.382286"
     y="56.486164"
     style="stroke-width:0.197387">Norm</text><text
     font-family="'Calibri Light', 'Calibri Light_MSFontService', sans-serif"
     font-weight="300"
     font-size="9.86935px"
     id="text427"
     x="77.317436"
     y="260.18362"
     style="stroke-width:0.197387">Norm</text><text
     font-family="'Calibri Light', 'Calibri Light_MSFontService', sans-serif"
     font-weight="300"
     font-size="9.86935px"
     id="text431"
     x="76.919624"
     y="145.6993"
     style="stroke-width:0.197387">Norm</text><text
     font-family="'Calibri Light', 'Calibri Light_MSFontService', sans-serif"
     font-weight="300"
     font-size="9.39371px"
     id="text737"
     x="90.026833"
     y="233.61328"
     style="font-style:normal;font-variant:normal;font-weight:normal;font-stretch:normal;font-size:9.39371px;font-family:'Calibri Light', 'Calibri Light_MSFontService', sans-serif;-inkscape-font-specification:'Calibri Light, Calibri Light_MSFontService, sans-serif, Normal';font-variant-ligatures:normal;font-variant-caps:normal;font-variant-numeric:normal;font-variant-east-asian:normal;stroke-width:0.187875"><tspan
       sodipodi:role="line"
       id="tspan514"
       x="90.026833"
       y="233.61328">$\boldsymbol{V}$</tspan></text><text
     font-family="'Calibri Light', 'Calibri Light_MSFontService', sans-serif"
     font-weight="300"
     font-size="9.39371px"
     id="text739"
     x="45.019905"
     y="233.24991"
     style="font-style:normal;font-variant:normal;font-weight:normal;font-stretch:normal;font-size:9.39371px;font-family:'Calibri Light', 'Calibri Light_MSFontService', sans-serif;-inkscape-font-specification:'Calibri Light, Calibri Light_MSFontService, sans-serif, Normal';font-variant-ligatures:normal;font-variant-caps:normal;font-variant-numeric:normal;font-variant-east-asian:normal;display:inline;stroke-width:0.187875"><tspan
       sodipodi:role="line"
       id="tspan995"
       x="45.019905"
       y="233.24991">$\boldsymbol{K}$</tspan></text><text
     font-family="'Calibri Light', 'Calibri Light_MSFontService', sans-serif"
     font-weight="300"
     font-size="9.39371px"
     id="text741"
     x="67.80455"
     y="233.43777"
     style="font-style:normal;font-variant:normal;font-weight:normal;font-stretch:normal;font-size:9.39371px;font-family:'Calibri Light', 'Calibri Light_MSFontService', sans-serif;-inkscape-font-specification:'Calibri Light, Calibri Light_MSFontService, sans-serif, Normal';font-variant-ligatures:normal;font-variant-caps:normal;font-variant-numeric:normal;font-variant-east-asian:normal;display:inline;stroke-width:0.187875"><tspan
       sodipodi:role="line"
       id="tspan993"
       x="67.80455"
       y="233.43777">$\boldsymbol{Q}$</tspan></text><text
     font-family="'Calibri Light', 'Calibri Light_MSFontService', sans-serif"
     font-weight="300"
     font-size="11.7344px"
     id="text4065-1"
     x="2.3936012"
     y="68.304062"
     style="font-style:normal;font-variant:normal;font-weight:normal;font-stretch:normal;font-size:12.2939px;font-family:'Calibri Light', 'Calibri Light_MSFontService', sans-serif;-inkscape-font-specification:'Calibri Light, Calibri Light_MSFontService, sans-serif, Normal';font-variant-ligatures:normal;font-variant-caps:normal;font-variant-numeric:normal;font-variant-east-asian:normal;stroke-width:0.192092"><tspan
       sodipodi:role="line"
       id="tspan11781-7"
       x="2.3936012"
       y="68.304062"
       style="stroke-width:0.192092">$\texttt{[CLS]}$</tspan></text><text
     font-family="'Calibri Light', 'Calibri Light_MSFontService', sans-serif"
     font-weight="300"
     font-size="10.8563px"
     id="text355"
     x="59.743053"
     y="212.81647"
     style="stroke-width:0.197387">Self-Attention</text></svg>
