<?xml version="1.0" encoding="UTF-8" standalone="no"?>
<svg
   width="169.88132"
   height="377.95276"
   xml:space="preserve"
   overflow="hidden"
   version="1.1"
   id="svg4107"
   sodipodi:docname="fttransformer.svg"
   inkscape:export-filename="fttransformer.pdf"
   inkscape:export-xdpi="96"
   inkscape:export-ydpi="96"
   inkscape:version="1.2.2 (732a01da63, 2022-12-09)"
   xmlns:inkscape="http://www.inkscape.org/namespaces/inkscape"
   xmlns:sodipodi="http://sodipodi.sourceforge.net/DTD/sodipodi-0.dtd"
   xmlns="http://www.w3.org/2000/svg"
   xmlns:svg="http://www.w3.org/2000/svg"><sodipodi:namedview
     id="namedview4109"
     pagecolor="#505050"
     bordercolor="#eeeeee"
     borderopacity="1"
     inkscape:showpageshadow="0"
     inkscape:pageopacity="0"
     inkscape:pagecheckerboard="0"
     inkscape:deskcolor="#505050"
     showgrid="false"
     inkscape:zoom="3.0918415"
     inkscape:cx="96.220974"
     inkscape:cy="158.4816"
     inkscape:window-width="2560"
     inkscape:window-height="1009"
     inkscape:window-x="-8"
     inkscape:window-y="36"
     inkscape:window-maximized="1"
     inkscape:current-layer="g12367" /><defs
     id="defs4011"><clipPath
       id="clip0"><rect
         x="3023"
         y="247"
         width="1003"
         height="2145"
         id="rect4008" /></clipPath></defs><g
     clip-path="url(#clip0)"
     transform="translate(-3067.4392,-303.23135)"
     id="g4105"><g
       id="g12367"
       transform="matrix(1.0476783,0,0,1.0476783,-146.25026,-14.457553)"><path
         d="m 3097.1841,612.91076 c 0,-1.85916 1.5053,-3.36446 3.3644,-3.36446 H 3209.33 c 1.8592,0 3.3645,1.5053 3.3645,3.36446 v 14.90635 c 0,1.85916 -1.5053,3.36447 -3.3645,3.36447 h -108.7815 c -1.8591,0 -3.3644,-1.50531 -3.3644,-3.36447 z"
         stroke="#000000"
         stroke-width="6.875"
         stroke-miterlimit="8"
         fill="#edaecd"
         fill-rule="evenodd"
         id="path4013"
         style="stroke-width:1;stroke-dasharray:none" /><path
         d="m 3118.636,519.48669 c 0,-2.61457 2.1177,-4.73226 4.7323,-4.73226 h 67.359 c 2.6146,0 4.7323,2.11769 4.7323,4.73226 v 20.97156 c 0,2.61456 -2.1177,4.73226 -4.7323,4.73226 h -67.359 c -2.6146,0 -4.7323,-2.1177 -4.7323,-4.73226 z"
         stroke="#000000"
         stroke-width="6.875"
         stroke-miterlimit="8"
         fill="#efabaa"
         fill-rule="evenodd"
         id="path4017"
         style="stroke-width:1;stroke-dasharray:none" /><path
         d="m 3118.636,493.76638 c 0,-1.36962 1.1111,-2.48072 2.4807,-2.48072 h 72.0455 c 1.3696,0 2.4807,1.1111 2.4807,2.48072 v 10.98999 c 0,1.36962 -1.1111,2.48072 -2.4807,2.48072 h -72.0455 c -1.3696,0 -2.4807,-1.1111 -2.4807,-2.48072 z"
         stroke="#000000"
         stroke-width="6.875"
         stroke-miterlimit="8"
         fill="#ccd497"
         fill-rule="evenodd"
         id="path4031"
         style="stroke-width:1;stroke-dasharray:none" /><path
         d="m 3118.4527,460.20786 c 0,-1.87384 1.5181,-3.39197 3.3919,-3.39197 h 70.223 c 1.8738,0 3.392,1.51813 3.392,3.39197 v 15.03468 c 0,1.87384 -1.5182,3.39198 -3.392,3.39198 h -70.223 c -1.8738,0 -3.3919,-1.51814 -3.3919,-3.39198 z"
         stroke="#000000"
         stroke-width="6.875"
         stroke-miterlimit="8"
         fill="#a8d1ee"
         fill-rule="evenodd"
         id="path4035"
         style="stroke-width:1;stroke-dasharray:none" /><path
         d="m 3118.4527,434.75524 c 0,-1.3843 1.1239,-2.50823 2.5082,-2.50823 h 71.9905 c 1.3842,0 2.5082,1.12393 2.5082,2.50823 v 11.11833 c 0,1.38429 -1.124,2.50822 -2.5082,2.50822 h -71.9905 c -1.3843,0 -2.5082,-1.12393 -2.5082,-2.50822 z"
         stroke="#000000"
         stroke-width="6.875"
         stroke-miterlimit="8"
         fill="#ccd497"
         fill-rule="evenodd"
         id="path4039"
         style="stroke-width:1;stroke-dasharray:none" /><path
         d="m 3155.3594,646.6618 1e-4,-10.72754 h -0.8404 v 10.72754 z m 2.101,-9.88717 -2.5211,-5.04214 -2.5211,5.04212 z"
         id="path4043"
         style="stroke-width:0.18335" /><path
         d="m 3099.0176,415.46023 c 0,-3.48786 2.8272,-6.3153 6.3145,-6.3153 h 95.5473 c 3.4873,0 6.3146,2.82744 6.3146,6.3153 v 156.60203 c 0,3.48731 -2.8273,6.31456 -6.3146,6.31456 h -95.5473 c -3.4873,0 -6.3145,-2.82725 -6.3145,-6.31456 z"
         stroke="#000000"
         stroke-width="0.840353"
         stroke-miterlimit="8"
         fill="none"
         fill-rule="evenodd"
         id="path4045" /><path
         d="m 3157.3763,456.89106 v -4.3067 l -0.8403,-2e-5 -1e-4,4.30672 z m 2.1009,-3.46634 -2.521,-5.04214 -2.5211,5.04211 z"
         id="path4057"
         style="stroke-width:0.18335" /><path
         d="m 3157.5596,514.76177 10e-5,-3.32225 h -0.8404 v 3.32224 z m 2.1009,-2.48186 -2.521,-5.04216 -2.5211,5.0421 z"
         id="path4059"
         style="stroke-width:0.18335" /><path
         d="m 3157.556,491.20865 v -5.77728 h -50.2901 l 0.4203,0.42018 v -45.53678 l -0.4203,0.42024 h 6.9857 v -0.84048 h -7.4059 v 46.37719 h 50.2901 l -0.4202,-0.42017 v 5.3571 z m -44.1449,-48.37282 5.0421,-2.52106 -5.0421,-2.52106 z"
         id="path4061"
         style="stroke-width:0.18335" /><path
         d="m 3155.3759,609.58847 v -48.05306 h -48.3991 l 0.4202,0.42005 V 499.3525 l -0.4202,0.42005 h 7.4581 v -0.84029 h -7.8784 v 63.44344 h 48.3993 l -0.4202,-0.42024 v 47.63301 z m -41.7813,-107.71491 5.0421,-2.52106 -5.0421,-2.52106 z"
         id="path4063"
         style="stroke-width:0.18335" /><path
         d="m 3154.9393,562.54854 h 22.6358 l 0.027,-12.97398 -0.8403,-0.002 -0.026,12.55468 0.4202,-0.41929 h -22.2166 z m 24.7364,-12.05616 -2.3623,-5.11842 -2.6774,4.96092 z"
         id="path4069"
         style="stroke-width:0.18335" /><path
         d="m 3155.3594,561.86434 1e-4,-12.105 h -0.8404 v 12.105 z m 2.101,-11.26463 -2.5211,-5.04214 -2.5211,5.04212 z"
         id="path4071"
         style="stroke-width:0.18335" /><path
         d="m 3156.4702,432.32585 -0.2713,-37.31114 0.8416,-0.006 0.2695,37.31169 z m -2.3652,-36.45563 2.4844,-5.06027 2.5577,5.02378 z"
         id="path4079"
         style="stroke-width:0.18335" /><path
         d="m 3117.9026,350.01938 c 0,-1.36963 1.1111,-2.47999 2.4807,-2.47999 h 72.0455 c 1.3696,0 2.4807,1.11036 2.4807,2.47999 v 10.99145 c 0,1.36963 -1.1111,2.47999 -2.4807,2.47999 h -72.0455 c -1.3696,0 -2.4807,-1.11036 -2.4807,-2.47999 z"
         stroke="#000000"
         stroke-width="6.875"
         stroke-miterlimit="8"
         fill="#ffff99"
         fill-rule="evenodd"
         id="path4085"
         style="stroke-width:1;stroke-dasharray:none" /><path
         d="m 3117.9026,322.91202 c 0,-1.38539 1.1239,-2.50841 2.5082,-2.50841 h 71.9905 c 1.3843,0 2.5082,1.12302 2.5082,2.50841 v 11.11797 c 0,1.38539 -1.1239,2.50841 -2.5082,2.50841 h -71.9905 c -1.3843,0 -2.5082,-1.12302 -2.5082,-2.50841 z"
         stroke="#000000"
         stroke-width="6.875"
         stroke-miterlimit="8"
         fill="#d2c4b2"
         fill-rule="evenodd"
         id="path4089"
         style="stroke-width:1;stroke-dasharray:none" /><path
         d="m 3156.8262,347.56799 1e-4,-6.82784 h -0.8404 v 6.82784 z m 2.101,-5.98747 -2.5211,-5.04214 -2.5211,5.0421 z"
         id="path4093"
         style="stroke-width:0.18335" /><path
         d="m 3157.0096,374.22633 v -6.35029 l -0.8403,-2e-5 -1e-4,6.3503 z m 2.1009,-5.50993 -2.521,-5.04213 -2.5211,5.0421 z"
         id="path4095"
         style="stroke-width:0.18335" /><path
         d="m 3118.086,377.18357 c 0,-1.38539 1.1239,-2.50841 2.5082,-2.50841 h 71.9905 c 1.3842,0 2.5082,1.12302 2.5082,2.50841 v 11.11797 c 0,1.38539 -1.124,2.50841 -2.5082,2.50841 h -71.9905 c -1.3843,0 -2.5082,-1.12302 -2.5082,-2.50841 z"
         stroke="#000000"
         stroke-width="6.875"
         stroke-miterlimit="8"
         fill="#ccd497"
         fill-rule="evenodd"
         id="path4097"
         style="stroke-width:1;stroke-dasharray:none" /><path
         d="m 3157.5596,486.05836 10e-5,-2.67213 h -0.8404 v 2.67212 z m 2.1009,-1.83176 -2.521,-5.04214 -2.5211,5.04209 z"
         id="path4101"
         style="stroke-width:0.18335" /><path
         d="m 3135.3743,561.55081 1e-4,-12.34274 h -0.8404 v 12.34274 z m 2.101,-11.50238 -2.5211,-5.04212 -2.5211,5.0421 z"
         id="path4103"
         style="stroke-width:0.18335" /><text
         font-family="'Calibri Light', 'Calibri Light_MSFontService', sans-serif"
         font-weight="300"
         font-size="10.0842px"
         id="text4015"
         x="3119.9597"
         y="623.57257"
         style="stroke-width:0.18335">Input Embedding</text><text
         font-family="'Calibri Light', 'Calibri Light_MSFontService', sans-serif"
         font-weight="300"
         font-size="10.0842px"
         id="text4019"
         x="3134.1401"
         y="527.13055"
         style="font-style:normal;font-variant:normal;font-weight:normal;font-stretch:normal;font-size:10.0842px;font-family:'Calibri Light', 'Calibri Light_MSFontService', sans-serif;-inkscape-font-specification:'Calibri Light, Calibri Light_MSFontService, sans-serif, Normal';font-variant-ligatures:normal;font-variant-caps:normal;font-variant-numeric:normal;font-variant-east-asian:normal;stroke-width:0.18335"><tspan
           sodipodi:role="line"
           id="tspan11783"
           x="3134.1401"
           y="527.13055">Multi-Head</tspan></text><text
         font-family="'Calibri Light', 'Calibri Light_MSFontService', sans-serif"
         font-weight="300"
         font-size="10.0842px"
         id="text4025"
         x="3129.0649"
         y="539.23163"
         style="font-style:normal;font-variant:normal;font-weight:normal;font-stretch:normal;font-size:10.0842px;font-family:'Calibri Light', 'Calibri Light_MSFontService', sans-serif;-inkscape-font-specification:'Calibri Light, Calibri Light_MSFontService, sans-serif, Normal';font-variant-ligatures:normal;font-variant-caps:normal;font-variant-numeric:normal;font-variant-east-asian:normal;stroke-width:0.18335"><tspan
           sodipodi:role="line"
           id="tspan11785"
           x="3129.0649"
           y="539.23163">Self-Attention</tspan></text><text
         font-family="'Calibri Light', 'Calibri Light_MSFontService', sans-serif"
         font-weight="300"
         font-size="9.16749px"
         id="text4037"
         x="3131.3037"
         y="470.65881"
         style="stroke-width:0.18335">Feed Forward</text><text
         font-family="'Calibri Light', 'Calibri Light_MSFontService', sans-serif"
         font-weight="300"
         font-size="9.16749px"
         id="text4041"
         x="3149.3708"
         y="443.33966"
         style="stroke-width:0.18335">Add</text><text
         font-family="'Calibri Light', 'Calibri Light_MSFontService', sans-serif"
         font-weight="300"
         font-size="9.16749px"
         id="text4041-9"
         x="3148.0522"
         y="502.33484"
         style="stroke-width:0.18335">Add</text><text
         font-family="'Calibri Light', 'Calibri Light_MSFontService', sans-serif"
         font-weight="300"
         font-size="11.7344px"
         id="text4047"
         x="3071.8855"
         y="661.8927"
         style="stroke-width:0.18335">categorical and continuous inputs</text><text
         font-family="'Calibri Light', 'Calibri Light_MSFontService', sans-serif"
         font-weight="300"
         font-size="11.7344px"
         id="text4083"
         x="3113.2014"
         y="311.21854"
         style="stroke-width:0.18335">Output Probabilities</text><text
         font-family="'Calibri Light', 'Calibri Light_MSFontService', sans-serif"
         font-weight="300"
         font-size="9.16749px"
         id="text4087"
         x="3145.0127"
         y="358.4487"
         style="stroke-width:0.18335">Linear</text><text
         font-family="'Calibri Light', 'Calibri Light_MSFontService', sans-serif"
         font-weight="300"
         font-size="9.16749px"
         id="text4091"
         x="3141.177"
         y="331.31293"
         style="stroke-width:0.18335">Softmax</text><text
         font-family="'Calibri Light', 'Calibri Light_MSFontService', sans-serif"
         font-weight="300"
         font-size="9.16749px"
         id="text4099"
         x="3145.9204"
         y="385.76782"
         style="stroke-width:0.18335">Norm</text><text
         font-family="'Calibri Light', 'Calibri Light_MSFontService', sans-serif"
         font-weight="300"
         font-size="11.7344px"
         id="text4065"
         x="3066.8433"
         y="491.37732"
         style="font-style:normal;font-variant:normal;font-weight:normal;font-stretch:normal;font-size:11.7344px;font-family:'Calibri Light', 'Calibri Light_MSFontService', sans-serif;-inkscape-font-specification:'Calibri Light, Calibri Light_MSFontService, sans-serif, Normal';font-variant-ligatures:normal;font-variant-caps:normal;font-variant-numeric:normal;font-variant-east-asian:normal;stroke-width:0.18335"><tspan
           sodipodi:role="line"
           id="tspan11781"
           x="3066.8433"
           y="491.37732">$L\times$</tspan></text><text
         font-family="'Calibri Light', 'Calibri Light_MSFontService', sans-serif"
         font-weight="300"
         font-size="11.7344px"
         id="text4065-1"
         x="3103.3105"
         y="404.13297"
         style="font-style:normal;font-variant:normal;font-weight:normal;font-stretch:normal;font-size:11.7344px;font-family:'Calibri Light', 'Calibri Light_MSFontService', sans-serif;-inkscape-font-specification:'Calibri Light, Calibri Light_MSFontService, sans-serif, Normal';font-variant-ligatures:normal;font-variant-caps:normal;font-variant-numeric:normal;font-variant-east-asian:normal;stroke-width:0.18335"><tspan
           sodipodi:role="line"
           id="tspan11781-7"
           x="3103.3105"
           y="404.13297">$\texttt{[CLS]}$</tspan></text><text
         font-family="'Calibri Light', 'Calibri Light_MSFontService', sans-serif"
         font-weight="300"
         font-size="8.96622px"
         id="text737"
         x="3156.8779"
         y="559.22198"
         style="stroke-width:0.179325">$\boldsymbol{V}$</text><text
         font-family="'Calibri Light', 'Calibri Light_MSFontService', sans-serif"
         font-weight="300"
         font-size="8.96622px"
         id="text739"
         x="3118.5061"
         y="558.68402"
         style="display:inline;stroke-width:0.179325">$\boldsymbol{K}$</text><text
         font-family="'Calibri Light', 'Calibri Light_MSFontService', sans-serif"
         font-weight="300"
         font-size="8.96622px"
         id="text741"
         x="3137.7693"
         y="558.86334"
         style="display:inline;stroke-width:0.179325">$\boldsymbol{Q}$</text></g></g></svg>
