<?xml version="1.0" encoding="UTF-8" standalone="no"?>
<svg
   width="257.76929"
   height="103.10772"
   xml:space="preserve"
   overflow="hidden"
   version="1.1"
   id="svg61"
   sodipodi:docname="post-norm.svg"
   inkscape:export-filename="post-norm.pdf"
   inkscape:export-xdpi="96"
   inkscape:export-ydpi="96"
   inkscape:version="1.2.2 (732a01da63, 2022-12-09)"
   xmlns:inkscape="http://www.inkscape.org/namespaces/inkscape"
   xmlns:sodipodi="http://sodipodi.sourceforge.net/DTD/sodipodi-0.dtd"
   xmlns="http://www.w3.org/2000/svg"
   xmlns:svg="http://www.w3.org/2000/svg"><g
     id="g1175"
     transform="matrix(0.55955993,0,0,0.55955993,11.515272,27.844856)"><path
       d="m 613.5,96.715 c 0,-7.299 5.92,-13.215 13.21,-13.215 h 233.57 c 7.3,0 13.22,5.916 13.22,13.215 v 58.57 c 0,7.299 -5.92,13.215 -13.22,13.215 H 626.71 c -7.29,0 -13.21,-5.916 -13.21,-13.215 z"
       stroke="#000000"
       stroke-width="6.875"
       stroke-miterlimit="8"
       fill="#ccd497"
       fill-rule="evenodd"
       id="path7"
       clip-path="url(#clipPath425)"
       transform="matrix(0.42738507,0,0,0.42738507,-10.003483,-0.27715922)"
       style="stroke-width:3.11975;stroke-dasharray:none" /><path
       d="m 165.5,93.181 c 0,-7.556 6.13,-13.681 13.68,-13.681 h 231.64 c 7.55,0 13.68,6.125 13.68,13.681 v 60.638 c 0,7.556 -6.13,13.681 -13.68,13.681 H 179.18 c -7.55,0 -13.68,-6.125 -13.68,-13.681 z"
       stroke="#000000"
       stroke-width="6.875"
       stroke-miterlimit="8"
       fill="#d9d9d9"
       fill-rule="evenodd"
       id="path13"
       clip-path="url(#clipPath419)"
       transform="matrix(0.42738507,0,0,0.42738507,-10.003483,-0.27715922)"
       style="stroke-width:3.11975;stroke-dasharray:none" /><path
       d="m 424.5,121.208 42.04,0.001 v 4.583 H 424.5 Z m 37.46,-11.458 27.5,13.75 -27.5,13.75 z"
       id="path17"
       clip-path="url(#clipPath413)"
       transform="matrix(0.42738507,0,0,0.42738507,-10.003483,-0.27715922)"
       style="stroke:none;stroke-width:0;stroke-dasharray:none" /><path
       d="m 873.5,123.208 42.04,0.001 v 4.583 H 873.5 Z m 37.46,-11.458 27.5,13.751 -27.5,13.749 z"
       id="path19"
       clip-path="url(#clipPath407)"
       transform="matrix(0.42738507,0,0,0.42738507,-10.003483,-0.27715922)"
       style="stroke:none;stroke-width:0;stroke-dasharray:none" /><path
       d="M 63.79167,85.5 V 2.9401 L 61.5,5.2318 h 457.428 l -2.291,-2.2917 v 71.3172 h 4.583 V 0.6485 H 59.20833 V 85.5 Z M 505.178,69.674 l 13.75,27.5 13.75,-27.5 z"
       id="path21"
       clip-path="url(#clipPath401)"
       transform="matrix(0.42738507,0,0,0.42738507,-10.003483,-0.27715922)"
       style="stroke:none;stroke-width:0;stroke-dasharray:none" /><path
       d="m 546.56,122.209 44.24,1.119 -0.11,4.582 -44.25,-1.119 z m 39.95,-10.451 27.14,14.441 -27.84,13.05 z"
       id="path23"
       clip-path="url(#clipPath395)"
       transform="matrix(0.42738507,0,0,0.42738507,-10.003483,-0.27715922)"
       style="stroke:none;stroke-width:0;stroke-dasharray:none" /><path
       d="m 491.5,124.5 c 0,-14.912 12.31,-27 27.5,-27 15.19,0 27.5,12.088 27.5,27 0,14.912 -12.31,27 -27.5,27 -15.19,0 -27.5,-12.088 -27.5,-27 z"
       stroke="#000000"
       stroke-width="4.58333"
       stroke-miterlimit="8"
       fill="none"
       fill-rule="evenodd"
       id="path25"
       clip-path="url(#clipPath389)"
       transform="matrix(0.42738507,0,0,0.42738507,-10.003483,-0.27715922)"
       style="stroke-width:3.11975;stroke-dasharray:none" /><path
       d="m 100.519,120.208 41.541,0.343 -0.04,4.583 -41.539,-0.342 z m 37.051,-11.153 27.38,13.976 -27.61,13.523 z"
       id="path57"
       clip-path="url(#clipPath383)"
       transform="matrix(0.42738507,0,0,0.42738507,-10.003483,-0.27715922)" /><text
       font-family="Calibri, Calibri_MSFontService, sans-serif"
       font-weight="400"
       font-size="21.3693px"
       id="text27"
       x="206.25337"
       y="59.556751"
       style="font-style:normal;font-variant:normal;font-weight:normal;font-stretch:normal;font-size:22.6772px;font-family:Calibri, Calibri_MSFontService, sans-serif;-inkscape-font-specification:'Calibri, Calibri_MSFontService, sans-serif, Normal';font-variant-ligatures:normal;font-variant-caps:normal;font-variant-numeric:normal;font-variant-east-asian:normal;stroke-width:0.427385">+</text><text
       font-family="'Calibri Light', 'Calibri Light_MSFontService', sans-serif"
       font-weight="300"
       font-size="15.8132px"
       id="text433"
       x="254.35675"
       y="58.666134"
       style="font-style:normal;font-variant:normal;font-weight:normal;font-stretch:normal;font-size:22.6772px;font-family:Calibri, Calibri_MSFontService, sans-serif;-inkscape-font-specification:'Calibri, Calibri_MSFontService, sans-serif, Normal';font-variant-ligatures:normal;font-variant-caps:normal;font-variant-numeric:normal;font-variant-east-asian:normal;stroke-width:0.427385">Layer Norm </text><text
       font-family="'Calibri Light', 'Calibri Light_MSFontService', sans-serif"
       font-weight="300"
       font-size="21.3693px"
       id="text439"
       x="78.925858"
       y="57.341877"
       style="font-style:normal;font-variant:normal;font-weight:normal;font-stretch:normal;font-size:22.6772px;font-family:'Calibri Light', 'Calibri Light_MSFontService', sans-serif;-inkscape-font-specification:'Calibri Light, Calibri Light_MSFontService, sans-serif, Normal';font-variant-ligatures:normal;font-variant-caps:normal;font-variant-numeric:normal;font-variant-east-asian:normal;stroke-width:0.427385">Sublayer</text><text
       font-family="Calibri, Calibri_MSFontService, sans-serif"
       font-weight="400"
       font-size="21.3693px"
       id="text453"
       x="390.03751"
       y="59.984138"
       style="font-style:normal;font-variant:normal;font-weight:normal;font-stretch:normal;font-size:22.6772px;font-family:Calibri, Calibri_MSFontService, sans-serif;-inkscape-font-specification:'Calibri, Calibri_MSFontService, sans-serif, Normal';font-variant-ligatures:normal;font-variant-caps:normal;font-variant-numeric:normal;font-variant-east-asian:normal;stroke-width:0.427385"><tspan
         sodipodi:role="line"
         id="tspan1139"
         x="390.03751"
         y="59.984138">$\boldsymbol{X}$</tspan></text><text
       font-family="Calibri, Calibri_MSFontService, sans-serif"
       font-weight="400"
       font-size="15.8132px"
       id="text461"
       x="2.3676414"
       y="57.347252"
       style="font-style:normal;font-variant:normal;font-weight:normal;font-stretch:normal;font-size:22.6772px;font-family:Calibri, Calibri_MSFontService, sans-serif;-inkscape-font-specification:'Calibri, Calibri_MSFontService, sans-serif, Normal';font-variant-ligatures:normal;font-variant-caps:normal;font-variant-numeric:normal;font-variant-east-asian:normal;stroke:none;stroke-width:0;stroke-dasharray:none">$\boldsymbol{X}$</text></g><sodipodi:namedview
     id="namedview63"
     pagecolor="#505050"
     bordercolor="#eeeeee"
     borderopacity="1"
     inkscape:showpageshadow="0"
     inkscape:pageopacity="0"
     inkscape:pagecheckerboard="0"
     inkscape:deskcolor="#505050"
     showgrid="false"
     inkscape:zoom="2.5540275"
     inkscape:cx="187.35116"
     inkscape:cy="56.773078"
     inkscape:window-width="2560"
     inkscape:window-height="1009"
     inkscape:window-x="-8"
     inkscape:window-y="36"
     inkscape:window-maximized="1"
     inkscape:current-layer="svg61" /><defs
     id="defs5"><rect
       x="416.98846"
       y="135.08076"
       width="229.05"
       height="40.720001"
       id="rect1143" /><clipPath
       clipPathUnits="userSpaceOnUse"
       id="clipPath383"><g
         id="g387"><rect
           x="0"
           y="0"
           width="1340"
           height="470"
           id="rect385" /></g></clipPath><clipPath
       clipPathUnits="userSpaceOnUse"
       id="clipPath389"><g
         id="g393"><rect
           x="0"
           y="0"
           width="1340"
           height="470"
           id="rect391" /></g></clipPath><clipPath
       clipPathUnits="userSpaceOnUse"
       id="clipPath395"><g
         id="g399"><rect
           x="0"
           y="0"
           width="1340"
           height="470"
           id="rect397" /></g></clipPath><clipPath
       clipPathUnits="userSpaceOnUse"
       id="clipPath401"><g
         id="g405"><rect
           x="0"
           y="0"
           width="1340"
           height="470"
           id="rect403" /></g></clipPath><clipPath
       clipPathUnits="userSpaceOnUse"
       id="clipPath407"><g
         id="g411"><rect
           x="0"
           y="0"
           width="1340"
           height="470"
           id="rect409" /></g></clipPath><clipPath
       clipPathUnits="userSpaceOnUse"
       id="clipPath413"><g
         id="g417"><rect
           x="0"
           y="0"
           width="1340"
           height="470"
           id="rect415" /></g></clipPath><clipPath
       clipPathUnits="userSpaceOnUse"
       id="clipPath419"><g
         id="g423"><rect
           x="0"
           y="0"
           width="1340"
           height="470"
           id="rect421" /></g></clipPath><clipPath
       clipPathUnits="userSpaceOnUse"
       id="clipPath425"><g
         id="g429"><rect
           x="0"
           y="0"
           width="1340"
           height="470"
           id="rect427" /></g></clipPath></defs></svg>
