<svg width="1340" height="470" xmlns="http://www.w3.org/2000/svg" xmlns:xlink="http://www.w3.org/1999/xlink" xml:space="preserve" overflow="hidden"><defs><clipPath id="clip0"><rect x="887" y="61" width="1340" height="470"/></clipPath></defs><g clip-path="url(#clip0)" transform="translate(-887 -61)"><path d="M1500.5 157.715C1500.5 150.416 1506.42 144.5 1513.71 144.5L1747.28 144.5C1754.58 144.5 1760.5 150.416 1760.5 157.715L1760.5 216.285C1760.5 223.584 1754.58 229.5 1747.28 229.5L1513.71 229.5C1506.42 229.5 1500.5 223.584 1500.5 216.285Z" stroke="#000000" stroke-width="6.875" stroke-miterlimit="8" fill="#CCD497" fill-rule="evenodd"/><text font-family="Calibri Light,Calibri Light_MSFontService,sans-serif" font-weight="300" font-size="37" transform="matrix(1 0 0 1 1544.03 198)">Layer </text><text font-family="Calibri Light,Calibri Light_MSFontService,sans-serif" font-weight="300" font-size="37" transform="matrix(1 0 0 1 1631.68 198)">Norm</text><path d="M1052.5 154.181C1052.5 146.625 1058.63 140.5 1066.18 140.5L1297.82 140.5C1305.37 140.5 1311.5 146.625 1311.5 154.181L1311.5 214.819C1311.5 222.375 1305.37 228.5 1297.82 228.5L1066.18 228.5C1058.63 228.5 1052.5 222.375 1052.5 214.819Z" stroke="#000000" stroke-width="6.875" stroke-miterlimit="8" fill="#D9D9D9" fill-rule="evenodd"/><text font-family="Calibri Light,Calibri Light_MSFontService,sans-serif" font-weight="300" font-size="50" transform="matrix(1 0 0 1 1094.43 201)">Sublayer</text><path d="M1311.5 182.208 1353.54 182.209 1353.54 186.792 1311.5 186.792ZM1348.96 170.75 1376.46 184.5 1348.96 198.25Z"/><path d="M1760.5 184.208 1802.54 184.209 1802.54 188.792 1760.5 188.792ZM1797.96 172.75 1825.46 186.501 1797.96 200.25Z"/><path d="M0 2.29167-82.5599 2.29167-80.2682 0-80.2682 457.428-82.5599 455.137-11.2427 455.137-11.2427 459.72-84.8515 459.72-84.8515-2.29167 0-2.29167ZM-15.826 443.678 11.674 457.428-15.826 471.178Z" transform="matrix(1.83697e-16 1 1 -1.83697e-16 948.5 146.5)"/><path d="M1433.56 183.209 1477.8 184.328 1477.69 188.91 1433.44 187.791ZM1473.51 172.758 1500.65 187.199 1472.81 200.249Z"/><path d="M1378.5 185.5C1378.5 170.588 1390.81 158.5 1406 158.5 1421.19 158.5 1433.5 170.588 1433.5 185.5 1433.5 200.412 1421.19 212.5 1406 212.5 1390.81 212.5 1378.5 200.412 1378.5 185.5Z" stroke="#000000" stroke-width="4.58333" stroke-miterlimit="8" fill="none" fill-rule="evenodd"/><text font-family="Calibri,Calibri_MSFontService,sans-serif" font-weight="400" font-size="50" transform="matrix(1 0 0 1 1393 201)">+</text><text font-family="Calibri,Calibri_MSFontService,sans-serif" font-weight="400" font-size="50" transform="matrix(1 0 0 1 1823.02 202)">$</text><text font-family="Calibri,Calibri_MSFontService,sans-serif" font-weight="400" font-size="50" transform="matrix(1 0 0 1 1848.8 202)">\</text><text font-family="Calibri,Calibri_MSFontService,sans-serif" font-weight="400" font-size="50" transform="matrix(1 0 0 1 1868.28 202)">boldsymbol</text><text font-family="Calibri,Calibri_MSFontService,sans-serif" font-weight="400" font-size="50" transform="matrix(1 0 0 1 2105.47 202)">{X}$</text><text font-family="Calibri,Calibri_MSFontService,sans-serif" font-weight="400" font-size="37" transform="matrix(1 0 0 1 909.792 190)">$</text><text font-family="Calibri,Calibri_MSFontService,sans-serif" font-weight="400" font-size="37" transform="matrix(1 0 0 1 928.126 190)">\</text><text font-family="Calibri,Calibri_MSFontService,sans-serif" font-weight="400" font-size="37" transform="matrix(1 0 0 1 909.792 234)">bo</text><text font-family="Calibri,Calibri_MSFontService,sans-serif" font-weight="400" font-size="37" transform="matrix(1 0 0 1 909.792 278)">lds</text><text font-family="Calibri,Calibri_MSFontService,sans-serif" font-weight="400" font-size="37" transform="matrix(1 0 0 1 909.792 322)">y</text><text font-family="Calibri,Calibri_MSFontService,sans-serif" font-weight="400" font-size="37" transform="matrix(1 0 0 1 909.792 366)">m</text><text font-family="Calibri,Calibri_MSFontService,sans-serif" font-weight="400" font-size="37" transform="matrix(1 0 0 1 909.792 410)">bo</text><text font-family="Calibri,Calibri_MSFontService,sans-serif" font-weight="400" font-size="37" transform="matrix(1 0 0 1 909.792 454)">l</text><text font-family="Calibri,Calibri_MSFontService,sans-serif" font-weight="400" font-size="37" transform="matrix(1 0 0 1 918.386 454)">{X</text><text font-family="Calibri,Calibri_MSFontService,sans-serif" font-weight="400" font-size="37" transform="matrix(1 0 0 1 909.792 498)">}$</text><path d="M987.519 181.208 1029.06 181.551 1029.02 186.134 987.481 185.792ZM1024.57 170.055 1051.95 184.031 1024.34 197.554Z"/></g></svg>