<svg width="1344" height="979" xmlns="http://www.w3.org/2000/svg" xmlns:xlink="http://www.w3.org/1999/xlink" xml:space="preserve" overflow="hidden"><defs><clipPath id="clip0"><rect x="915" y="875" width="1344" height="979"/></clipPath></defs><g clip-path="url(#clip0)" transform="translate(-915 -875)"><path d="M1409.5 974.87C1409.5 967.486 1415.49 961.5 1422.87 961.5L1656.13 961.5C1663.51 961.5 1669.5 967.486 1669.5 974.87L1669.5 1034.13C1669.5 1041.51 1663.51 1047.5 1656.13 1047.5L1422.87 1047.5C1415.49 1047.5 1409.5 1041.51 1409.5 1034.13Z" stroke="#000000" stroke-width="6.875" stroke-miterlimit="8" fill="#D9D9D9" fill-rule="evenodd"/><text font-family="Calibri Light,Calibri Light_MSFontService,sans-serif" font-weight="300" font-size="50" transform="matrix(1 0 0 1 1452.21 1021)">Sublayer</text><path d="M1084.5 974.181C1084.5 966.625 1090.63 960.5 1098.18 960.5L1330.82 960.5C1338.37 960.5 1344.5 966.625 1344.5 974.181L1344.5 1034.82C1344.5 1042.37 1338.37 1048.5 1330.82 1048.5L1098.18 1048.5C1090.63 1048.5 1084.5 1042.37 1084.5 1034.82Z" stroke="#000000" stroke-width="6.875" stroke-miterlimit="8" fill="#CCD497" fill-rule="evenodd"/><text font-family="Calibri Light,Calibri Light_MSFontService,sans-serif" font-weight="300" font-size="37" transform="matrix(1 0 0 1 1127.66 1016)">Layer Norm</text><path d="M1344.5 1002.21 1387.44 1002.21 1387.44 1006.79 1344.5 1006.79ZM1382.86 990.75 1410.36 1004.5 1382.86 1018.25Z"/><path d="M1669.56 1002.21 1710.97 1003.33 1710.84 1007.91 1669.44 1006.79ZM1706.7 991.751 1733.81 1006.24 1705.95 1019.24Z"/><path d="M0 2.29167-82.3642 2.29167-80.0725 0-80.0725 778.06-82.3642 775.768-3.83493 775.768-3.83493 780.352-84.6559 780.352-84.6559-2.29167 0-2.29167ZM-8.41826 764.31 19.0817 778.06-8.41826 791.81Z" transform="matrix(1.83697e-16 1 1 -1.83697e-16 983.5 960.5)"/><path d="M1788.5 1004.21 1830.54 1004.21 1830.54 1008.79 1788.5 1008.79ZM1825.96 992.75 1853.46 1006.5 1825.96 1020.25Z"/><path d="M1734.5 1006.5C1734.5 991.588 1746.59 979.5 1761.5 979.5 1776.41 979.5 1788.5 991.588 1788.5 1006.5 1788.5 1021.41 1776.41 1033.5 1761.5 1033.5 1746.59 1033.5 1734.5 1021.41 1734.5 1006.5Z" stroke="#000000" stroke-width="4.58333" stroke-miterlimit="8" fill="none" fill-rule="evenodd"/><text font-family="Calibri,Calibri_MSFontService,sans-serif" font-weight="400" font-size="50" transform="matrix(1 0 0 1 1748.21 1023)">+</text><text font-family="Calibri,Calibri_MSFontService,sans-serif" font-weight="400" font-size="50" transform="matrix(1 0 0 1 1855.1 1023)">$</text><text font-family="Calibri,Calibri_MSFontService,sans-serif" font-weight="400" font-size="50" transform="matrix(1 0 0 1 1880.89 1023)">\</text><text font-family="Calibri,Calibri_MSFontService,sans-serif" font-weight="400" font-size="50" transform="matrix(1 0 0 1 1900.36 1023)">boldsymbol</text><text font-family="Calibri,Calibri_MSFontService,sans-serif" font-weight="400" font-size="50" transform="matrix(1 0 0 1 2137.55 1023)">{X}$</text><text font-family="Calibri,Calibri_MSFontService,sans-serif" font-weight="400" font-size="50" transform="matrix(1 0 0 1 946.172 1023)">$</text><text font-family="Calibri,Calibri_MSFontService,sans-serif" font-weight="400" font-size="50" transform="matrix(1 0 0 1 946.172 1084)">\</text><text font-family="Calibri,Calibri_MSFontService,sans-serif" font-weight="400" font-size="50" transform="matrix(1 0 0 1 946.172 1144)">b</text><text font-family="Calibri,Calibri_MSFontService,sans-serif" font-weight="400" font-size="50" transform="matrix(1 0 0 1 946.172 1205)">ol</text><text font-family="Calibri,Calibri_MSFontService,sans-serif" font-weight="400" font-size="50" transform="matrix(1 0 0 1 946.172 1265)">d</text><text font-family="Calibri,Calibri_MSFontService,sans-serif" font-weight="400" font-size="50" transform="matrix(1 0 0 1 946.172 1326)">s</text><text font-family="Calibri,Calibri_MSFontService,sans-serif" font-weight="400" font-size="50" transform="matrix(1 0 0 1 946.172 1386)">y</text><text font-family="Calibri,Calibri_MSFontService,sans-serif" font-weight="400" font-size="50" transform="matrix(1 0 0 1 946.172 1447)">m</text><text font-family="Calibri,Calibri_MSFontService,sans-serif" font-weight="400" font-size="50" transform="matrix(1 0 0 1 946.172 1507)">b</text><text font-family="Calibri,Calibri_MSFontService,sans-serif" font-weight="400" font-size="50" transform="matrix(1 0 0 1 946.172 1568)">ol</text><text font-family="Calibri,Calibri_MSFontService,sans-serif" font-weight="400" font-size="50" transform="matrix(1 0 0 1 946.172 1628)">{</text><text font-family="Calibri,Calibri_MSFontService,sans-serif" font-weight="400" font-size="50" transform="matrix(1 0 0 1 946.172 1689)">X</text><text font-family="Calibri,Calibri_MSFontService,sans-serif" font-weight="400" font-size="50" transform="matrix(1 0 0 1 946.172 1749)">}</text><text font-family="Calibri,Calibri_MSFontService,sans-serif" font-weight="400" font-size="50" transform="matrix(1 0 0 1 946.172 1810)">$</text><path d="M1019.52 1002.21 1061.06 1002.55 1061.02 1007.13 1019.48 1006.79ZM1056.57 991.055 1083.95 1005.03 1056.34 1018.55Z"/></g></svg>