<?xml version="1.0" encoding="UTF-8" standalone="no"?>
<svg
   width="415.74805"
   height="108.47147"
   xml:space="preserve"
   overflow="hidden"
   version="1.1"
   id="svg135"
   sodipodi:docname="random-token-replacement.svg"
   inkscape:export-filename="random-token-replacement.pdf"
   inkscape:export-xdpi="96"
   inkscape:export-ydpi="96"
   inkscape:version="1.2.2 (732a01da63, 2022-12-09)"
   xmlns:inkscape="http://www.inkscape.org/namespaces/inkscape"
   xmlns:sodipodi="http://sodipodi.sourceforge.net/DTD/sodipodi-0.dtd"
   xmlns="http://www.w3.org/2000/svg"
   xmlns:svg="http://www.w3.org/2000/svg"><sodipodi:namedview
     id="namedview137"
     pagecolor="#505050"
     bordercolor="#eeeeee"
     borderopacity="1"
     inkscape:showpageshadow="0"
     inkscape:pageopacity="0"
     inkscape:pagecheckerboard="0"
     inkscape:deskcolor="#505050"
     showgrid="false"
     inkscape:zoom="4.2141924"
     inkscape:cx="204.90284"
     inkscape:cy="89.459608"
     inkscape:window-width="2560"
     inkscape:window-height="1009"
     inkscape:window-x="-8"
     inkscape:window-y="36"
     inkscape:window-maximized="1"
     inkscape:current-layer="svg135" /><defs
     id="defs5"><clipPath
       clipPathUnits="userSpaceOnUse"
       id="clipPath494"><g
         id="g498"><rect
           x="8.256424"
           y="-2.1716461"
           width="396.09235"
           height="117.25851"
           id="rect496"
           style="stroke-width:0.172439" /></g></clipPath><clipPath
       clipPathUnits="userSpaceOnUse"
       id="clipPath500"><g
         id="g504"><rect
           x="8.256424"
           y="-2.1716461"
           width="396.09235"
           height="117.25851"
           id="rect502"
           style="stroke-width:0.172439" /></g></clipPath><clipPath
       clipPathUnits="userSpaceOnUse"
       id="clipPath506"><g
         id="g510"><rect
           x="8.256424"
           y="-2.1716461"
           width="396.09235"
           height="117.25851"
           id="rect508"
           style="stroke-width:0.172439" /></g></clipPath><clipPath
       clipPathUnits="userSpaceOnUse"
       id="clipPath512"><g
         id="g516"><rect
           x="8.256424"
           y="-2.1716461"
           width="396.09235"
           height="117.25851"
           id="rect514"
           style="stroke-width:0.172439" /></g></clipPath><clipPath
       clipPathUnits="userSpaceOnUse"
       id="clipPath518"><g
         id="g522"><rect
           x="8.256424"
           y="-2.1716461"
           width="396.09235"
           height="117.25851"
           id="rect520"
           style="stroke-width:0.172439" /></g></clipPath><clipPath
       clipPathUnits="userSpaceOnUse"
       id="clipPath524"><g
         id="g528"><rect
           x="8.256424"
           y="-2.1716461"
           width="396.09235"
           height="117.25851"
           id="rect526"
           style="stroke-width:0.172439" /></g></clipPath><clipPath
       clipPathUnits="userSpaceOnUse"
       id="clipPath530"><g
         id="g534"><rect
           x="8.256424"
           y="-2.1716461"
           width="396.09235"
           height="117.25851"
           id="rect532"
           style="stroke-width:0.172439" /></g></clipPath><clipPath
       clipPathUnits="userSpaceOnUse"
       id="clipPath536"><g
         id="g540"><rect
           x="8.256424"
           y="-2.1716461"
           width="396.09235"
           height="117.25851"
           id="rect538"
           style="stroke-width:0.172439" /></g></clipPath><clipPath
       clipPathUnits="userSpaceOnUse"
       id="clipPath542"><g
         id="g546"><rect
           x="8.256424"
           y="-2.1716461"
           width="396.09235"
           height="117.25851"
           id="rect544"
           style="stroke-width:0.172439" /></g></clipPath><clipPath
       clipPathUnits="userSpaceOnUse"
       id="clipPath548"><g
         id="g552"><rect
           x="8.256424"
           y="-2.1716461"
           width="396.09235"
           height="117.25851"
           id="rect550"
           style="stroke-width:0.172439" /></g></clipPath><clipPath
       clipPathUnits="userSpaceOnUse"
       id="clipPath554"><g
         id="g558"><rect
           x="8.256424"
           y="-2.1716461"
           width="396.09235"
           height="117.25851"
           id="rect556"
           style="stroke-width:0.172439" /></g></clipPath><clipPath
       clipPathUnits="userSpaceOnUse"
       id="clipPath560"><g
         id="g564"><rect
           x="8.256424"
           y="-2.1716461"
           width="396.09235"
           height="117.25851"
           id="rect562"
           style="stroke-width:0.172439" /></g></clipPath><clipPath
       clipPathUnits="userSpaceOnUse"
       id="clipPath566"><g
         id="g570"><rect
           x="8.256424"
           y="-2.1716461"
           width="396.09235"
           height="117.25851"
           id="rect568"
           style="stroke-width:0.172439" /></g></clipPath><clipPath
       clipPathUnits="userSpaceOnUse"
       id="clipPath572"><g
         id="g576"><rect
           x="8.256424"
           y="-2.1716461"
           width="396.09235"
           height="117.25851"
           id="rect574"
           style="stroke-width:0.172439" /></g></clipPath><clipPath
       clipPathUnits="userSpaceOnUse"
       id="clipPath578"><g
         id="g582"><rect
           x="8.256424"
           y="-2.1716461"
           width="396.09235"
           height="117.25851"
           id="rect580"
           style="stroke-width:0.172439" /></g></clipPath><clipPath
       clipPathUnits="userSpaceOnUse"
       id="clipPath584"><g
         id="g588"><rect
           x="8.256424"
           y="-2.1716461"
           width="396.09235"
           height="117.25851"
           id="rect586"
           style="stroke-width:0.172439" /></g></clipPath><clipPath
       clipPathUnits="userSpaceOnUse"
       id="clipPath590"><g
         id="g594"><rect
           x="8.256424"
           y="-2.1716461"
           width="396.09235"
           height="117.25851"
           id="rect592"
           style="stroke-width:0.172439" /></g></clipPath><clipPath
       clipPathUnits="userSpaceOnUse"
       id="clipPath596"><g
         id="g600"><rect
           x="8.256424"
           y="-2.1716461"
           width="396.09235"
           height="117.25851"
           id="rect598"
           style="stroke-width:0.172439" /></g></clipPath><clipPath
       clipPathUnits="userSpaceOnUse"
       id="clipPath602"><g
         id="g606"><rect
           x="8.256424"
           y="-2.1716461"
           width="396.09235"
           height="117.25851"
           id="rect604"
           style="stroke-width:0.172439" /></g></clipPath><clipPath
       clipPathUnits="userSpaceOnUse"
       id="clipPath608"><g
         id="g612"><rect
           x="8.256424"
           y="-2.1716461"
           width="396.09235"
           height="117.25851"
           id="rect610"
           style="stroke-width:0.172439" /></g></clipPath><clipPath
       clipPathUnits="userSpaceOnUse"
       id="clipPath614"><g
         id="g618"><rect
           x="8.256424"
           y="-2.1716461"
           width="396.09235"
           height="117.25851"
           id="rect616"
           style="stroke-width:0.172439" /></g></clipPath><clipPath
       clipPathUnits="userSpaceOnUse"
       id="clipPath620"><g
         id="g624"><rect
           x="8.256424"
           y="-2.1716461"
           width="396.09235"
           height="117.25851"
           id="rect622"
           style="stroke-width:0.172439" /></g></clipPath><clipPath
       clipPathUnits="userSpaceOnUse"
       id="clipPath626"><g
         id="g630"><rect
           x="8.256424"
           y="-2.1716461"
           width="396.09235"
           height="117.25851"
           id="rect628"
           style="stroke-width:0.172439" /></g></clipPath><clipPath
       clipPathUnits="userSpaceOnUse"
       id="clipPath632"><g
         id="g636"><rect
           x="8.256424"
           y="-2.1716461"
           width="396.09235"
           height="117.25851"
           id="rect634"
           style="stroke-width:0.172439" /></g></clipPath><clipPath
       clipPathUnits="userSpaceOnUse"
       id="clipPath638"><g
         id="g642"><rect
           x="8.256424"
           y="-2.1716461"
           width="396.09235"
           height="117.25851"
           id="rect640"
           style="stroke-width:0.172439" /></g></clipPath><clipPath
       clipPathUnits="userSpaceOnUse"
       id="clipPath644"><g
         id="g648"><rect
           x="8.256424"
           y="-2.1716461"
           width="396.09235"
           height="117.25851"
           id="rect646"
           style="stroke-width:0.172439" /></g></clipPath><clipPath
       clipPathUnits="userSpaceOnUse"
       id="clipPath650"><g
         id="g654"><rect
           x="8.256424"
           y="-2.1716461"
           width="396.09235"
           height="117.25851"
           id="rect652"
           style="stroke-width:0.172439" /></g></clipPath><clipPath
       clipPathUnits="userSpaceOnUse"
       id="clipPath656"><g
         id="g660"><rect
           x="8.256424"
           y="-2.1716461"
           width="396.09235"
           height="117.25851"
           id="rect658"
           style="stroke-width:0.172439" /></g></clipPath><clipPath
       clipPathUnits="userSpaceOnUse"
       id="clipPath662"><g
         id="g666"><rect
           x="8.256424"
           y="-2.1716461"
           width="396.09235"
           height="117.25851"
           id="rect664"
           style="stroke-width:0.172439" /></g></clipPath><clipPath
       clipPathUnits="userSpaceOnUse"
       id="clipPath668"><g
         id="g672"><rect
           x="8.256424"
           y="-2.1716461"
           width="396.09235"
           height="117.25851"
           id="rect670"
           style="stroke-width:0.172439" /></g></clipPath><clipPath
       clipPathUnits="userSpaceOnUse"
       id="clipPath674"><g
         id="g678"><rect
           x="8.256424"
           y="-2.1716461"
           width="396.09235"
           height="117.25851"
           id="rect676"
           style="stroke-width:0.172439" /></g></clipPath><clipPath
       clipPathUnits="userSpaceOnUse"
       id="clipPath680"><g
         id="g684"><rect
           x="8.256424"
           y="-2.1716461"
           width="396.09235"
           height="117.25851"
           id="rect682"
           style="stroke-width:0.172439" /></g></clipPath><clipPath
       clipPathUnits="userSpaceOnUse"
       id="clipPath686"><g
         id="g690"><rect
           x="8.256424"
           y="-2.1716461"
           width="396.09235"
           height="117.25851"
           id="rect688"
           style="stroke-width:0.172439" /></g></clipPath><clipPath
       clipPathUnits="userSpaceOnUse"
       id="clipPath692"><g
         id="g696"><rect
           x="8.256424"
           y="-2.1716461"
           width="396.09235"
           height="117.25851"
           id="rect694"
           style="stroke-width:0.172439" /></g></clipPath></defs><path
     d="m 166.46919,49.173785 c 0,-0.977729 0.79149,-1.769224 1.76922,-1.769224 h 25.25886 c 0.97773,0 1.76923,0.791495 1.76923,1.769224 v 7.842524 c 0,0.977729 -0.7915,1.769224 -1.76923,1.769224 h -25.25886 c -0.97773,0 -1.76922,-0.791495 -1.76922,-1.769224 z"
     stroke="#000000"
     stroke-width="1.18552"
     stroke-miterlimit="8"
     fill="#efabaa"
     fill-rule="evenodd"
     id="path7"
     clip-path="url(#clipPath692)" /><path
     d="m 166.81407,35.237266 c 0,-0.517317 0.42075,-0.938068 0.93806,-0.938068 h 26.92118 c 0.51731,0 0.93807,0.420751 0.93807,0.938068 v 4.159228 c 0,0.517317 -0.42076,0.938068 -0.93807,0.938068 h -26.92118 c -0.51731,0 -0.93806,-0.420751 -0.93806,-0.938068 z"
     stroke="#000000"
     stroke-width="1.18552"
     stroke-miterlimit="8"
     fill="#ccd497"
     fill-rule="evenodd"
     id="path9"
     clip-path="url(#clipPath686)" /><path
     d="m 166.46919,21.59217 c 0,-0.696654 0.56387,-1.260529 1.26053,-1.260529 h 26.27625 c 0.69665,0 1.26053,0.563875 1.26053,1.260529 v 5.583574 c 0,0.696653 -0.56388,1.260529 -1.26053,1.260529 h -26.27625 c -0.69666,0 -1.26053,-0.563876 -1.26053,-1.260529 z"
     stroke="#000000"
     stroke-width="1.18552"
     stroke-miterlimit="8"
     fill="#a8d1ee"
     fill-rule="evenodd"
     id="path11"
     clip-path="url(#clipPath680)" /><path
     d="m 166.81407,7.8194684 c 0,-0.517317 0.42075,-0.9380681 0.93806,-0.9380681 h 26.92118 c 0.51731,0 0.93807,0.4207511 0.93807,0.9380681 v 4.1592286 c 0,0.517316 -0.42076,0.938068 -0.93807,0.938068 h -26.92118 c -0.51731,0 -0.93806,-0.420752 -0.93806,-0.938068 z"
     stroke="#000000"
     stroke-width="1.18552"
     stroke-miterlimit="8"
     fill="#ccd497"
     fill-rule="evenodd"
     id="path13"
     clip-path="url(#clipPath674)" /><path
     d="m 159.74407,7.512527 c 0,-1.3001899 1.05532,-2.3555165 2.35551,-2.3555165 h 35.63969 c 1.30019,0 2.35552,1.0553266 2.35552,2.3555165 v 67.368461 c 0,1.30019 -1.05533,2.355516 -2.35552,2.355516 h -35.63969 c -1.30019,0 -2.35551,-1.055326 -2.35551,-2.355516 z"
     stroke="#000000"
     stroke-width="0.790345"
     stroke-miterlimit="8"
     fill="none"
     fill-rule="evenodd"
     id="path15"
     clip-path="url(#clipPath668)" /><path
     d="m 166.46919,67.138477 c 0,-0.517316 0.42075,-0.938068 0.93807,-0.938068 h 26.92117 c 0.51732,0 0.93807,0.420752 0.93807,0.938068 v 4.159229 c 0,0.517317 -0.42075,0.938068 -0.93807,0.938068 h -26.92117 c -0.51732,0 -0.93807,-0.420751 -0.93807,-0.938068 z"
     stroke="#000000"
     stroke-width="1.18552"
     stroke-miterlimit="8"
     fill="#ccd497"
     fill-rule="evenodd"
     id="path17"
     clip-path="url(#clipPath662)" /><path
     d="m 62.660922,11.832123 h 18.276635 v 0.789771 H 62.660922 Z m 17.486347,-1.9761503 4.742072,2.3710363 -4.742072,2.371036 z"
     id="path33"
     style="stroke-width:0.172439"
     clip-path="url(#clipPath656)" /><path
     d="m 283.90013,49.173785 c 0,-0.977729 0.7915,-1.769224 1.76923,-1.769224 h 25.08642 c 0.97773,0 1.76922,0.791495 1.76922,1.769224 v 7.842524 c 0,0.977729 -0.79149,1.769224 -1.76922,1.769224 h -25.08642 c -0.97773,0 -1.76923,-0.791495 -1.76923,-1.769224 z"
     stroke="#000000"
     stroke-width="1.18552"
     stroke-miterlimit="8"
     fill="#efabaa"
     fill-rule="evenodd"
     id="path35"
     clip-path="url(#clipPath650)" /><path
     d="m 284.24501,35.237266 c 0,-0.517317 0.42075,-0.938068 0.93807,-0.938068 h 26.92117 c 0.51732,0 0.93807,0.420751 0.93807,0.938068 v 4.159228 c 0,0.517317 -0.42075,0.938068 -0.93807,0.938068 h -26.92117 c -0.51732,0 -0.93807,-0.420751 -0.93807,-0.938068 z"
     stroke="#000000"
     stroke-width="1.18552"
     stroke-miterlimit="8"
     fill="#ccd497"
     fill-rule="evenodd"
     id="path37"
     clip-path="url(#clipPath644)" /><path
     d="m 283.72769,21.59217 c 0,-0.696654 0.56388,-1.260529 1.26053,-1.260529 h 26.44869 c 0.69666,0 1.26053,0.563875 1.26053,1.260529 v 5.583574 c 0,0.696653 -0.56387,1.260529 -1.26053,1.260529 h -26.44869 c -0.69665,0 -1.26053,-0.563876 -1.26053,-1.260529 z"
     stroke="#000000"
     stroke-width="1.18552"
     stroke-miterlimit="8"
     fill="#a8d1ee"
     fill-rule="evenodd"
     id="path39"
     clip-path="url(#clipPath638)" /><path
     d="m 284.24501,7.8194684 c 0,-0.517317 0.42075,-0.9380681 0.93807,-0.9380681 h 26.92117 c 0.51732,0 0.93807,0.4207511 0.93807,0.9380681 v 4.1592286 c 0,0.517316 -0.42075,0.938068 -0.93807,0.938068 h -26.92117 c -0.51732,0 -0.93807,-0.420752 -0.93807,-0.938068 z"
     stroke="#000000"
     stroke-width="1.18552"
     stroke-miterlimit="8"
     fill="#ccd497"
     fill-rule="evenodd"
     id="path41"
     clip-path="url(#clipPath632)" /><path
     d="m 277.00257,7.5228733 c 0,-1.3070875 1.05878,-2.3658628 2.36587,-2.3658628 h 35.79143 c 1.30709,0 2.36586,1.0587753 2.36586,2.3658628 V 74.870641 c 0,1.307088 -1.05877,2.365863 -2.36586,2.365863 h -35.79143 c -1.30709,0 -2.36587,-1.058775 -2.36587,-2.365863 z"
     stroke="#000000"
     stroke-width="0.790345"
     stroke-miterlimit="8"
     fill="none"
     fill-rule="evenodd"
     id="path43"
     clip-path="url(#clipPath626)" /><path
     d="m 283.72769,67.138477 c 0,-0.517316 0.42076,-0.938068 0.93807,-0.938068 h 27.09361 c 0.51732,0 0.93807,0.420752 0.93807,0.938068 v 4.159229 c 0,0.517317 -0.42075,0.938068 -0.93807,0.938068 h -27.09361 c -0.51731,0 -0.93807,-0.420751 -0.93807,-0.938068 z"
     stroke="#000000"
     stroke-width="1.18552"
     stroke-miterlimit="8"
     fill="#ccd497"
     fill-rule="evenodd"
     id="path45"
     clip-path="url(#clipPath620)" /><path
     d="m 135.43017,12.177001 h 18.27681 v 0.789771 h -18.27681 z m 17.48704,-1.97615 4.74207,2.371036 -4.74207,2.371036 z"
     id="path47"
     style="stroke-width:0.172439"
     clip-path="url(#clipPath614)" /><path
     d="m 202.16406,13.039196 h 3.1608 v 0.789771 h -3.1608 z m 5.53184,0 h 3.16253 v 0.789771 h -3.16253 z m 5.53357,0 h 3.1608 v 0.789771 h -3.1608 z m 5.53184,0 h 1.67955 v 0.789771 h -1.67955 z m 0.88978,-1.97615 4.74208,2.371036 -4.74208,2.371036 z"
     id="path51"
     style="stroke-width:0.172439"
     clip-path="url(#clipPath608)" /><path
     d="m 254.93038,13.211635 h 18.27681 v 0.789771 h -18.27681 z m 17.48704,-1.97615 4.74207,2.371036 -4.74207,2.371036 z"
     id="path53"
     style="stroke-width:0.172439"
     clip-path="url(#clipPath602)" /><path
     d="m 317.52573,14.246269 h 18.27681 v 0.789771 h -18.27681 z m 17.48704,-1.976151 4.74207,2.371036 -4.74207,2.371036 z"
     id="path55"
     style="stroke-width:0.172439"
     clip-path="url(#clipPath596)" /><path
     d="m 62.316044,24.765047 h 18.276807 v 0.78977 H 62.316044 Z m 17.486347,-1.976151 4.742072,2.371036 -4.742072,2.371036 z"
     id="path63"
     style="stroke-width:0.172439"
     clip-path="url(#clipPath590)" /><path
     d="m 135.25773,25.109925 h 18.27681 v 0.78977 h -18.27681 z m 17.48704,-1.976151 4.74207,2.371036 -4.74207,2.371036 z"
     id="path65"
     style="stroke-width:0.172439"
     clip-path="url(#clipPath584)" /><path
     d="m 254.58551,26.316998 h 18.2768 v 0.78977 h -18.2768 z m 17.48703,-1.976151 4.74208,2.371036 -4.74208,2.371036 z"
     id="path69"
     style="stroke-width:0.172439"
     clip-path="url(#clipPath578)" /><path
     d="m 317.18086,27.179193 h 18.2768 v 0.78977 h -18.2768 z m 17.48703,-1.976151 4.74208,2.371036 -4.74208,2.371036 z"
     id="path71"
     style="stroke-width:0.172439"
     clip-path="url(#clipPath572)" /><path
     d="M 62.316044,37.870409 H 80.592851 V 38.66018 H 62.316044 Z m 17.486347,-1.97615 4.742072,2.371036 -4.742072,2.371036 z"
     id="path87"
     style="stroke-width:0.172439"
     clip-path="url(#clipPath566)" /><path
     d="m 135.25773,38.215287 h 18.27681 v 0.789771 h -18.27681 z m 17.48704,-1.97615 4.74207,2.371036 -4.74207,2.371036 z"
     id="path89"
     style="stroke-width:0.172439"
     clip-path="url(#clipPath560)" /><path
     d="m 201.81918,39.077482 h 3.16081 v 0.789771 h -3.16081 z m 5.53184,0 h 3.16253 v 0.789771 h -3.16253 z m 5.53357,0 h 3.1608 v 0.789771 h -3.1608 z m 5.53184,0 h 1.67956 v 0.789771 h -1.67956 z m 0.88979,-1.97615 4.74207,2.371036 -4.74207,2.371036 z"
     id="path93"
     style="stroke-width:0.172439"
     clip-path="url(#clipPath554)" /><path
     d="m 254.58551,39.42236 h 18.2768 v 0.789771 h -18.2768 z m 17.48703,-1.97615 4.74208,2.371035 -4.74208,2.371036 z"
     id="path95"
     style="stroke-width:0.172439"
     clip-path="url(#clipPath548)" /><path
     d="m 317.18086,40.284555 h 18.2768 v 0.789771 h -18.2768 z m 17.48703,-1.976151 4.74208,2.371036 -4.74208,2.371036 z"
     id="path97"
     style="stroke-width:0.172439"
     clip-path="url(#clipPath542)" /><path
     d="m 62.316044,51.148211 h 18.276807 v 0.78977 H 62.316044 Z m 17.486347,-1.976151 4.742072,2.371036 -4.742072,2.371036 z"
     id="path105"
     style="stroke-width:0.172439"
     clip-path="url(#clipPath536)" /><path
     d="m 135.25773,51.493089 h 18.27681 v 0.78977 h -18.27681 z m 17.48704,-1.976151 4.74207,2.371036 -4.74207,2.371036 z"
     id="path107"
     style="stroke-width:0.172439"
     clip-path="url(#clipPath530)" /><path
     d="m 254.58551,52.700162 h 18.2768 v 0.78977 h -18.2768 z m 17.48703,-1.976151 4.74208,2.371036 -4.74208,2.371036 z"
     id="path111"
     style="stroke-width:0.172439"
     clip-path="url(#clipPath524)" /><path
     d="m 317.18086,53.562357 h 18.2768 v 0.78977 h -18.2768 z m 17.48703,-1.976151 4.74208,2.371036 -4.74208,2.371036 z"
     id="path113"
     style="stroke-width:0.172439"
     clip-path="url(#clipPath518)" /><path
     d="m 62.660922,63.391378 h 18.276635 v 0.789771 H 62.660922 Z m 17.486347,-1.97615 4.742072,2.371036 -4.742072,2.371036 z"
     id="path121"
     style="stroke-width:0.172439"
     clip-path="url(#clipPath512)" /><path
     d="m 135.43017,63.736256 h 18.27681 v 0.789771 h -18.27681 z m 17.48704,-1.97615 4.74207,2.371036 -4.74207,2.371036 z"
     id="path123"
     style="stroke-width:0.172439"
     clip-path="url(#clipPath506)" /><path
     d="m 254.93038,64.77089 h 18.27681 v 0.789771 h -18.27681 z m 17.48704,-1.97615 4.74207,2.371036 -4.74207,2.371036 z"
     id="path127"
     style="stroke-width:0.172439"
     clip-path="url(#clipPath500)" /><path
     d="m 317.52573,65.805524 h 18.27681 v 0.789771 h -18.27681 z m 17.48704,-1.976151 4.74207,2.371036 -4.74207,2.371036 z"
     id="path129"
     style="stroke-width:0.172439"
     clip-path="url(#clipPath494)" /><text
     font-family="Arial, Arial_MSFontService, sans-serif"
     font-weight="400"
     font-size="14.3124px"
     id="text19"
     x="150.59962"
     y="103.01613"
     style="stroke-width:0.172439">Generator</text><text
     font-family="Arial, Arial_MSFontService, sans-serif"
     font-weight="400"
     font-size="14.3124px"
     id="text21"
     x="265.00256"
     y="103.18857"
     style="stroke-width:0.172439">Discriminator</text><text
     font-family="Arial, Arial_MSFontService, sans-serif"
     font-weight="400"
     font-size="14.3124px"
     id="text23"
     x="19.204403"
     y="15.934447"
     style="stroke-width:0.172439">the</text><text
     font-family="Arial, Arial_MSFontService, sans-serif"
     font-weight="400"
     font-size="14.3124px"
     id="text49"
     x="225.58299"
     y="17.14152"
     style="stroke-width:0.172439">the</text><text
     font-family="Arial, Arial_MSFontService, sans-serif"
     font-weight="400"
     font-size="14.3124px"
     id="text57"
     x="341.46716"
     y="19.210787"
     style="stroke-width:0.172439">original</text><text
     font-family="Arial, Arial_MSFontService, sans-serif"
     font-weight="400"
     font-size="14.3124px"
     id="text59"
     x="17.722633"
     y="28.694931"
     style="stroke-width:0.172439">chef</text><text
     font-family="Arial, Arial_MSFontService, sans-serif"
     font-weight="400"
     font-size="14.3124px"
     id="text61"
     x="90.730713"
     y="28.522491"
     style="stroke-width:0.172439">chef</text><text
     font-family="Arial, Arial_MSFontService, sans-serif"
     font-weight="400"
     font-size="14.3124px"
     id="text67"
     x="224.98981"
     y="30.591761"
     style="stroke-width:0.172439">chef</text><text
     font-family="Arial, Arial_MSFontService, sans-serif"
     font-weight="400"
     font-size="14.3124px"
     id="text73"
     x="341.17056"
     y="32.316151"
     style="stroke-width:0.172439">original</text><text
     font-family="Arial, Arial_MSFontService, sans-serif"
     font-weight="400"
     font-size="14.3124px"
     id="text75"
     x="17.129789"
     y="41.455418"
     style="stroke-width:0.172439">cooke</text><text
     font-family="Arial, Arial_MSFontService, sans-serif"
     font-weight="400"
     font-size="14.3124px"
     id="text91"
     x="224.98981"
     y="43.524685"
     style="stroke-width:0.172439">ate</text><text
     font-family="Arial, Arial_MSFontService, sans-serif"
     font-weight="400"
     font-size="14.3124px"
     id="text99"
     x="341.17056"
     y="45.421513"
     style="stroke-width:0.172439">replaced</text><text
     font-family="Arial, Arial_MSFontService, sans-serif"
     font-weight="400"
     font-size="14.3124px"
     id="text101"
     x="16.833538"
     y="55.078094"
     style="stroke-width:0.172439">the</text><text
     font-family="Arial, Arial_MSFontService, sans-serif"
     font-weight="400"
     font-size="14.3124px"
     id="text103"
     x="91.916229"
     y="57.147362"
     style="stroke-width:0.172439">the</text><text
     font-family="Arial, Arial_MSFontService, sans-serif"
     font-weight="400"
     font-size="14.3124px"
     id="text109"
     x="224.99153"
     y="56.285168"
     style="stroke-width:0.172439">the</text><text
     font-family="Arial, Arial_MSFontService, sans-serif"
     font-weight="400"
     font-size="14.3124px"
     id="text115"
     x="341.17056"
     y="58.699314"
     style="stroke-width:0.172439">original</text><text
     font-family="Arial, Arial_MSFontService, sans-serif"
     font-weight="400"
     font-size="14.3124px"
     id="text117"
     x="16.833538"
     y="67.666138"
     style="stroke-width:0.172439">meal</text><text
     font-family="Arial, Arial_MSFontService, sans-serif"
     font-weight="400"
     font-size="14.3124px"
     id="text119"
     x="92.212654"
     y="68.183456"
     style="stroke-width:0.172439">meal</text><text
     font-family="Arial, Arial_MSFontService, sans-serif"
     font-weight="400"
     font-size="14.3124px"
     id="text125"
     x="224.69493"
     y="69.390533"
     style="stroke-width:0.172439">meal</text><text
     font-family="Arial, Arial_MSFontService, sans-serif"
     font-weight="400"
     font-size="14.3124px"
     id="text131"
     x="341.46716"
     y="70.770042"
     style="stroke-width:0.172439">original</text><text
     font-family="Arial, Arial_MSFontService, sans-serif"
     font-weight="400"
     font-size="14.3124px"
     id="text25"
     x="90.434464"
     y="15.934447"
     style="stroke-width:0.172439">$\mathtt{[MASK]}$</text><text
     font-family="Arial, Arial_MSFontService, sans-serif"
     font-weight="400"
     font-size="14.3124px"
     id="text79"
     x="91.027138"
     y="42.662491"
     style="stroke-width:0.172439">$\mathtt{[MASK]}$</text></svg>
