<?xml version="1.0" encoding="UTF-8" standalone="no"?>
<svg
   width="529.12366"
   height="273.75504"
   xml:space="preserve"
   overflow="hidden"
   version="1.1"
   id="svg160"
   sodipodi:docname="research-framework.svg"
   inkscape:version="1.2.2 (732a01da63, 2022-12-09)"
   inkscape:export-filename="research-framework.pdf"
   inkscape:export-xdpi="96"
   inkscape:export-ydpi="96"
   xmlns:inkscape="http://www.inkscape.org/namespaces/inkscape"
   xmlns:sodipodi="http://sodipodi.sourceforge.net/DTD/sodipodi-0.dtd"
   xmlns="http://www.w3.org/2000/svg"
   xmlns:svg="http://www.w3.org/2000/svg"><defs
     id="defs164" /><sodipodi:namedview
     id="namedview162"
     pagecolor="#505050"
     bordercolor="#eeeeee"
     borderopacity="1"
     inkscape:showpageshadow="0"
     inkscape:pageopacity="0"
     inkscape:pagecheckerboard="0"
     inkscape:deskcolor="#505050"
     showgrid="false"
     inkscape:zoom="5.1933184"
     inkscape:cx="468.29403"
     inkscape:cy="66.142681"
     inkscape:window-width="1278"
     inkscape:window-height="1000"
     inkscape:window-x="1273"
     inkscape:window-y="44"
     inkscape:window-maximized="0"
     inkscape:current-layer="svg160" /><path
     d="m 278.71551,7.6094114 c 0,-3.9483757 3.20014,-7.14931667 7.14912,-7.14931667 H 394.0309 c 3.94898,0 7.14912,3.20094097 7.14912,7.14931667 V 266.14584 c 0,3.94898 -3.20014,7.14911 -7.14912,7.14911 H 285.86463 c -3.94898,0 -7.14912,-3.20013 -7.14912,-7.14911 z"
     stroke="#a5a5a5"
     stroke-width="0.920156"
     stroke-linejoin="round"
     stroke-miterlimit="10"
     stroke-dasharray="18.3333, 13.75"
     fill="#a5a5a5"
     fill-rule="evenodd"
     fill-opacity="0.101961"
     id="path2"
     style="stroke-width:0.92;stroke-dasharray:4.60000008;stroke-dashoffset:0" /><path
     d="m 284.93912,186.28292 c 0,-2.61592 2.12004,-4.73596 4.73596,-4.73596 h 97.93547 c 2.61592,0 4.73596,2.12004 4.73596,4.73596 v 71.63571 c 0,2.61592 -2.12004,4.73597 -4.73596,4.73597 h -97.93547 c -2.61592,0 -4.73596,-2.12005 -4.73596,-4.73597 z"
     stroke="#a5a5a5"
     stroke-width="0.920156"
     stroke-linejoin="round"
     stroke-miterlimit="10"
     stroke-dasharray="18.3333, 13.75"
     fill="#ffe9bd"
     fill-rule="evenodd"
     fill-opacity="0.101961"
     id="path4"
     style="stroke-width:0.92;stroke-dasharray:4.60000008;stroke-dashoffset:0" /><path
     d="m 286.74597,24.12646 c 0,-3.424188 2.77653,-6.200117 6.19952,-6.200117 h 93.80379 c 3.42298,0 6.19952,2.775929 6.19952,6.200117 V 169.3246 c 0,3.42298 -2.77654,6.19951 -6.19952,6.19951 h -93.80379 c -3.42299,0 -6.19952,-2.77653 -6.19952,-6.19951 z"
     stroke="#a5a5a5"
     stroke-width="0.920156"
     stroke-linejoin="round"
     stroke-miterlimit="10"
     stroke-dasharray="18.3333, 13.75"
     fill="#efabaa"
     fill-rule="evenodd"
     fill-opacity="0.101961"
     id="path6"
     style="stroke-width:0.92;stroke-dasharray:4.60000008;stroke-dashoffset:0" /><path
     d="m 419.65007,20.85184 c 0,-1.948391 1.58,-3.527781 3.52738,-3.527781 h 93.72751 c 1.94738,0 3.52738,1.57939 3.52738,3.527781 v 53.373645 c 0,1.948189 -1.58,3.52778 -3.52738,3.52778 h -93.72751 c -1.94738,0 -3.52738,-1.579591 -3.52738,-3.52778 z"
     stroke="#a5a5a5"
     stroke-width="0.920156"
     stroke-linejoin="round"
     stroke-miterlimit="10"
     stroke-dasharray="18.3333, 13.75"
     fill="#bfffbd"
     fill-rule="evenodd"
     fill-opacity="0.101961"
     id="path8"
     style="stroke-dasharray:4.60078001;stroke-dashoffset:0" /><path
     d="m 410.90201,7.4761474 c 0,-3.7996123 3.07968,-6.87989564 6.8801,-6.87989564 H 521.8689 c 3.80042,0 6.8801,3.08028334 6.8801,6.87989564 V 173.19693 c 0,3.80041 -3.07968,6.88009 -6.8801,6.88009 H 417.78211 c -3.80042,0 -6.8801,-3.07968 -6.8801,-6.88009 z"
     stroke="#a5a5a5"
     stroke-width="0.920156"
     stroke-linejoin="round"
     stroke-miterlimit="10"
     stroke-dasharray="18.3333, 13.75"
     fill="#a5a5a5"
     fill-rule="evenodd"
     fill-opacity="0.101961"
     id="path10"
     style="stroke-width:0.92;stroke-dasharray:4.6;stroke-dashoffset:0" /><path
     d="m 418.24474,90.457051 c 0,-2.802631 2.27262,-5.074849 5.07525,-5.074849 h 91.43481 c 2.80263,0 5.07525,2.272218 5.07525,5.074849 v 76.779629 c 0,2.80263 -2.27262,5.07525 -5.07525,5.07525 h -91.43481 c -2.80263,0 -5.07525,-2.27262 -5.07525,-5.07525 z"
     stroke="#a5a5a5"
     stroke-width="0.920156"
     stroke-linejoin="round"
     stroke-miterlimit="10"
     stroke-dasharray="18.3333, 13.75"
     fill="#efabaa"
     fill-rule="evenodd"
     fill-opacity="0.101961"
     id="path12"
     style="stroke-width:0.92;stroke-dasharray:4.60000008;stroke-dashoffset:0" /><path
     d="m 0.46009473,11.090616 c 0,-5.8710686 4.75943237,-10.63052127 10.63052127,-10.63052127 H 259.05092 c 5.87027,0 10.63032,4.75945267 10.63032,10.63052127 V 171.92044 c 0,5.87027 -4.76005,10.63032 -10.63032,10.63032 H 11.090616 c -5.8710889,0 -10.63052127,-4.76005 -10.63052127,-10.63032 z"
     stroke="#a5a5a5"
     stroke-width="0.920156"
     stroke-linejoin="round"
     stroke-miterlimit="10"
     stroke-dasharray="18.3333, 13.75"
     fill="#bdffff"
     fill-rule="evenodd"
     fill-opacity="0.101961"
     id="path14"
     style="stroke-width:0.92;stroke-dasharray:4.60000008;stroke-dashoffset:0" /><path
     d="m 408.60819,187.87496 c 0,-1.83095 1.48564,-3.31658 3.31658,-3.31658 h 113.42221 c 1.83094,0 3.31658,1.48563 3.31658,3.31658 v 50.18234 c 0,1.83094 -1.48564,3.31658 -3.31658,3.31658 H 411.92477 c -1.83094,0 -3.31658,-1.48564 -3.31658,-3.31658 z"
     stroke="#a5a5a5"
     stroke-width="0.920156"
     stroke-linejoin="round"
     stroke-miterlimit="10"
     stroke-dasharray="18.3333, 13.75"
     fill="#c0bdff"
     fill-rule="evenodd"
     fill-opacity="0.101961"
     id="path16"
     style="stroke-width:0.92;stroke-dasharray:4.60000008;stroke-dashoffset:0" /><path
     d="m 7.2859852,135.37182 c 0,2.88293 16.3588488,5.21979 36.5385898,5.21979 20.179742,0 36.53859,-2.33686 36.53859,-5.21979 v 31.31879 c 0,2.88293 -16.358848,5.2198 -36.53859,5.2198 -20.179741,0 -36.5385898,-2.33687 -36.5385898,-5.2198 z"
     fill="#ace3f4"
     fill-rule="evenodd"
     id="path18"
     style="stroke-width:0.200761" /><path
     d="m 7.2859852,135.37182 c 0,-2.88294 16.3588488,-5.2198 36.5385898,-5.2198 20.179742,0 36.53859,2.33686 36.53859,5.2198 0,2.88293 -16.358848,5.21979 -36.53859,5.21979 -20.179741,0 -36.5385898,-2.33686 -36.5385898,-5.21979 z"
     fill="#cdeef8"
     fill-rule="evenodd"
     id="path20"
     style="stroke-width:0.200761" /><path
     d="m 80.363165,135.37182 c 0,2.88293 -16.358848,5.21979 -36.53859,5.21979 -20.179741,0 -36.5385898,-2.33686 -36.5385898,-5.21979 0,-2.88294 16.3588488,-5.2198 36.5385898,-5.2198 20.179742,0 36.53859,2.33686 36.53859,5.2198 v 31.31879 c 0,2.88293 -16.358848,5.2198 -36.53859,5.2198 -20.179741,0 -36.5385898,-2.33687 -36.5385898,-5.2198 v -31.31879"
     stroke="#000000"
     stroke-width="1.38024"
     stroke-miterlimit="8"
     fill="none"
     fill-rule="evenodd"
     id="path22"
     style="stroke-width:1;stroke-dasharray:none" /><path
     d="m 8.4905541,35.392592 c 0,2.882735 16.3588489,5.219799 36.5385899,5.219799 20.179742,0 36.53859,-2.337064 36.53859,-5.219799 v 31.318792 c 0,2.882734 -16.358848,5.219798 -36.53859,5.219798 -20.179741,0 -36.5385899,-2.337064 -36.5385899,-5.219798 z"
     fill="#ace3f4"
     fill-rule="evenodd"
     id="path28"
     style="stroke-width:0.200761" /><path
     d="m 8.4905541,35.392592 c 0,-2.882734 16.3588489,-5.219798 36.5385899,-5.219798 20.179742,0 36.53859,2.337064 36.53859,5.219798 0,2.882735 -16.358848,5.219799 -36.53859,5.219799 -20.179741,0 -36.5385899,-2.337064 -36.5385899,-5.219799 z"
     fill="#cdeef8"
     fill-rule="evenodd"
     id="path30"
     style="stroke-width:0.200761" /><path
     d="m 81.567734,35.392592 c 0,2.882735 -16.358848,5.219799 -36.53859,5.219799 -20.179741,0 -36.5385899,-2.337064 -36.5385899,-5.219799 0,-2.882734 16.3588489,-5.219798 36.5385899,-5.219798 20.179742,0 36.53859,2.337064 36.53859,5.219798 v 31.318792 c 0,2.882734 -16.358848,5.219798 -36.53859,5.219798 -20.179741,0 -36.5385899,-2.337064 -36.5385899,-5.219798 V 35.392592"
     stroke="#000000"
     stroke-width="1.38024"
     stroke-miterlimit="8"
     fill="none"
     fill-rule="evenodd"
     id="path32"
     style="stroke-width:1;stroke-dasharray:none" /><path
     d="m 7.4867467,85.357107 c 0,2.868881 16.3588493,5.194703 36.5385903,5.194703 20.179741,0 36.53859,-2.325822 36.53859,-5.194703 v 31.169223 c 0,2.86889 -16.358849,5.1937 -36.53859,5.1937 -20.179741,0 -36.5385903,-2.32481 -36.5385903,-5.1937 z"
     fill="#ace3f4"
     fill-rule="evenodd"
     id="path38"
     style="stroke-width:0.200761" /><path
     d="m 7.4867467,85.357107 c 0,-2.869083 16.3588493,-5.194704 36.5385903,-5.194704 20.179741,0 36.53859,2.325621 36.53859,5.194704 0,2.868881 -16.358849,5.194703 -36.53859,5.194703 -20.179741,0 -36.5385903,-2.325822 -36.5385903,-5.194703 z"
     fill="#cdeef8"
     fill-rule="evenodd"
     id="path40"
     style="stroke-width:0.200761" /><path
     d="m 80.563927,85.357107 c 0,2.868881 -16.358849,5.194703 -36.53859,5.194703 -20.179741,0 -36.5385903,-2.325822 -36.5385903,-5.194703 0,-2.869083 16.3588493,-5.194704 36.5385903,-5.194704 20.179741,0 36.53859,2.325621 36.53859,5.194704 v 31.169223 c 0,2.86889 -16.358849,5.1937 -36.53859,5.1937 -20.179741,0 -36.5385903,-2.32481 -36.5385903,-5.1937 V 85.357107"
     stroke="#000000"
     stroke-width="1.38024"
     stroke-miterlimit="8"
     fill="none"
     fill-rule="evenodd"
     id="path42"
     style="stroke-width:1;stroke-dasharray:none" /><path
     d="m 424.26759,112.72813 c 0,-2.2409 1.81689,-4.05759 4.05739,-4.05759 h 81.6256 c 2.2405,0 4.05739,1.81669 4.05739,4.05759 v 17.98401 c 0,2.2405 -1.81689,4.05739 -4.05739,4.05739 h -81.6256 c -2.2405,0 -4.05739,-1.81689 -4.05739,-4.05739 z"
     stroke="#000000"
     stroke-width="1.38024"
     stroke-miterlimit="8"
     fill="#d2c3ae"
     fill-rule="evenodd"
     id="path50"
     style="stroke-width:1;stroke-dasharray:none" /><path
     d="m 82.021656,50.977305 7.164977,43.531111 -0.907844,0.14937 -7.164976,-43.531115 z m 9.285419,42.249652 -1.82713,5.895959 -3.620532,-4.99936 z"
     id="path54"
     style="stroke-width:0.200761" /><path
     d="m 422.05921,205.57208 c 0,-3.06763 2.48744,-5.55507 5.55507,-5.55507 h 80.03557 c 3.06764,0 5.55507,2.48744 5.55507,5.55507 v 24.62541 c 0,3.06763 -2.48743,5.55507 -5.55507,5.55507 h -80.03557 c -3.06763,0 -5.55507,-2.48744 -5.55507,-5.55507 z"
     stroke="#000000"
     stroke-width="1.38024"
     stroke-miterlimit="8"
     fill="#e4d6ea"
     fill-rule="evenodd"
     id="path56"
     style="stroke-width:1;stroke-dasharray:none" /><path
     d="m 424.26759,143.67732 c 0,-2.25857 1.83094,-4.08951 4.08951,-4.08951 h 82.3644 c 2.25857,0 4.08952,1.83094 4.08952,4.08951 v 18.12073 c 0,2.25857 -1.83095,4.08951 -4.08952,4.08951 h -82.3644 c -2.25857,0 -4.08951,-1.83094 -4.08951,-4.08951 z"
     stroke="#000000"
     stroke-width="1.38024"
     stroke-miterlimit="8"
     fill="#d2c3ae"
     fill-rule="evenodd"
     id="path62"
     style="stroke-width:1;stroke-dasharray:none" /><path
     d="m 424.86987,46.169067 c 0,-2.292696 1.85905,-4.151346 4.15175,-4.151346 h 80.23232 c 2.29269,0 4.15175,1.85865 4.15175,4.151346 v 18.398786 c 0,2.292697 -1.85906,4.151146 -4.15175,4.151146 h -80.23232 c -2.2927,0 -4.15175,-1.858449 -4.15175,-4.151146 z"
     stroke="#000000"
     stroke-width="1.38024"
     stroke-miterlimit="8"
     fill="#a9d18e"
     fill-rule="evenodd"
     id="path66"
     style="stroke-width:1;stroke-dasharray:none" /><path
     d="m 293.17034,204.87343 c 0,-2.01765 1.6342,-3.65185 3.65185,-3.65185 h 86.45191 c 2.01765,0 3.65185,1.6342 3.65185,3.65185 v 16.18539 c 0,2.01766 -1.6342,3.65186 -3.65185,3.65186 h -86.45191 c -2.01765,0 -3.65185,-1.6342 -3.65185,-3.65186 z"
     stroke="#000000"
     stroke-width="1.38024"
     stroke-miterlimit="8"
     fill="#ffff99"
     fill-rule="evenodd"
     id="path70"
     style="stroke-width:1;stroke-dasharray:none" /><path
     d="m 166.89136,88.074213 c 0,-2.706466 2.19393,-4.900388 4.90039,-4.900388 h 82.34855 c 2.70626,0 4.90059,2.193922 4.90059,4.900388 V 109.793 c 0,2.70646 -2.19433,4.90038 -4.90059,4.90038 h -82.34855 c -2.70646,0 -4.90039,-2.19392 -4.90039,-4.90038 z"
     stroke="#000000"
     stroke-width="1.38024"
     stroke-miterlimit="8"
     fill="#ace3f4"
     fill-rule="evenodd"
     id="path74"
     style="stroke-width:1;stroke-dasharray:none" /><path
     d="m 80.654976,101.49077 4.431023,-0.8946 -0.182111,-0.901954 -4.43101,0.894604 z m 3.984309,1.5424 4.865454,-3.798484 -5.958059,-1.61326 z"
     id="path82"
     style="stroke-width:0.200761" /><path
     d="m 80.816274,151.27762 8.351326,-47.43138 -0.906217,-0.15941 -8.351326,47.43123 z m 10.457294,-46.12623 -1.7613,-5.915844 -3.676003,4.958614 z"
     id="path84"
     style="stroke-width:0.200761" /><path
     d="m 89.598194,88.859591 c 0,-2.585807 2.09615,-4.681958 4.681757,-4.681958 h 58.694629 c 2.58561,0 4.68176,2.096151 4.68176,4.681958 V 109.6101 c 0,2.58561 -2.09615,4.68176 -4.68176,4.68176 H 94.279951 c -2.585607,0 -4.681757,-2.09615 -4.681757,-4.68176 z"
     stroke="#000000"
     stroke-width="1.38024"
     stroke-miterlimit="8"
     fill="#ace3f4"
     fill-rule="evenodd"
     id="path86"
     style="stroke-width:1;stroke-dasharray:none" /><path
     d="m 157.66447,99.657006 4.62743,-0.0818 -0.0163,-0.92001 -4.62743,0.0818 z m 3.74807,2.234524 5.4713,-2.857624 -5.56887,-2.66246 z"
     id="path90"
     style="stroke-width:0.200761" /><path
     d="m 292.96958,45.901653 c 0,-2.034115 1.64825,-3.68317 3.68397,-3.68317 h 88.19452 c 2.03572,0 3.68397,1.649055 3.68397,3.68317 v 16.323515 c 0,2.034115 -1.64825,3.68317 -3.68397,3.68317 h -88.19452 c -2.03572,0 -3.68397,-1.649055 -3.68397,-3.68317 z"
     stroke="#000000"
     stroke-width="1.38024"
     stroke-miterlimit="8"
     fill="#edaecd"
     fill-rule="evenodd"
     id="path92"
     style="stroke-width:1;stroke-dasharray:none" /><path
     d="m 292.96958,77.755273 c 0,-2.551277 2.06784,-4.619522 4.61952,-4.619522 h 85.72114 c 2.55167,0 4.61952,2.068245 4.61952,4.619522 v 20.473653 c 0,2.551284 -2.06785,4.619524 -4.61952,4.619524 H 297.5891 c -2.55168,0 -4.61952,-2.06824 -4.61952,-4.619524 z"
     stroke="#000000"
     stroke-width="1.38024"
     stroke-miterlimit="8"
     fill="#edaecd"
     fill-rule="evenodd"
     id="path96"
     style="stroke-width:1;stroke-dasharray:none" /><path
     d="m 293.3711,111.81808 c 0,-2.2927 1.85905,-4.15135 4.15175,-4.15135 h 85.25135 c 2.2927,0 4.15175,1.85865 4.15175,4.15135 v 18.39818 c 0,2.2927 -1.85905,4.15175 -4.15175,4.15175 h -85.25135 c -2.2927,0 -4.15175,-1.85905 -4.15175,-4.15175 z"
     stroke="#000000"
     stroke-width="1.38024"
     stroke-miterlimit="8"
     fill="#ffffff"
     fill-rule="evenodd"
     id="path114"
     style="stroke-width:1;stroke-dasharray:none" /><path
     d="m 292.76881,146.71885 c 0,-2.27462 1.845,-4.11962 4.11963,-4.11962 h 85.91789 c 2.27462,0 4.11962,1.845 4.11962,4.11962 v 18.26127 c 0,2.27463 -1.845,4.11962 -4.11962,4.11962 h -85.91789 c -2.27463,0 -4.11963,-1.84499 -4.11963,-4.11962 z"
     stroke="#000000"
     stroke-width="1.38024"
     stroke-miterlimit="8"
     fill="#ffffff"
     fill-rule="evenodd"
     id="path118"
     style="stroke-width:1;stroke-dasharray:none" /><path
     d="m 293.17034,234.75477 c 0,-1.99958 1.62014,-3.61973 3.61973,-3.61973 h 86.51615 c 1.99959,0 3.61973,1.62015 3.61973,3.61973 v 16.04888 c 0,1.99958 -1.62014,3.61972 -3.61973,3.61972 h -86.51615 c -1.99959,0 -3.61973,-1.62014 -3.61973,-3.61972 z"
     stroke="#000000"
     stroke-width="1.38024"
     stroke-miterlimit="8"
     fill="#ffff99"
     fill-rule="evenodd"
     id="path128"
     style="stroke-width:1;stroke-dasharray:none" /><path
     d="m 269.48048,17.265437 5.61329,2e-4 v 0.92009 h -5.61329 z m 4.69381,-2.300326 5.52094,2.760471 -5.52295,2.76047 z"
     id="path152"
     style="stroke-width:0.200761" /><path
     d="m 400.97925,16.863914 5.0612,2e-4 v 0.92009 h -5.0612 z m 4.14171,-2.300326 5.52094,2.760471 -5.52094,2.76047 z"
     id="path154"
     style="stroke-width:0.200761" /><path
     d="m 401.18002,193.33366 h 3.67995 v 0.91949 h -3.67995 z m 2.76047,-2.30072 5.52094,2.76047 -5.52094,2.76047 z"
     id="path156"
     style="stroke-width:0.200761" /><text
     font-family="'Calibri Light', 'Calibri Light_MSFontService', sans-serif"
     font-weight="300"
     font-size="10.0381px"
     id="text24"
     x="14.406795"
     y="150.93083"
     style="stroke-width:0.200761;-inkscape-font-specification:Calibri;font-family:Calibri;font-weight:normal;font-style:normal;font-stretch:normal;font-variant:normal">OptionMetrics</text><text
     font-family="'Calibri Light', 'Calibri Light_MSFontService', sans-serif"
     font-weight="300"
     font-size="10.0381px"
     id="text26"
     x="19.122683"
     y="163.17728"
     style="stroke-width:0.200761;-inkscape-font-specification:Calibri;font-family:Calibri;font-weight:normal;font-style:normal;font-stretch:normal;font-variant:normal">Option Data</text><text
     font-family="'Calibri Light', 'Calibri Light_MSFontService', sans-serif"
     font-weight="300"
     font-size="10.0381px"
     id="text34"
     x="30.483574"
     y="50.951607"
     style="stroke-width:0.200761;-inkscape-font-specification:Calibri;font-family:Calibri;font-weight:normal;font-style:normal;font-stretch:normal;font-variant:normal">LiveVol</text><text
     font-family="'Calibri Light', 'Calibri Light_MSFontService', sans-serif"
     font-weight="300"
     font-size="10.0381px"
     id="text36"
     x="22.717518"
     y="63.198055"
     style="stroke-width:0.200761;-inkscape-font-specification:Calibri;font-family:Calibri;font-weight:normal;font-style:normal;font-stretch:normal;font-variant:normal">Trade Data</text><text
     font-family="'Calibri Light', 'Calibri Light_MSFontService', sans-serif"
     font-weight="300"
     font-size="10.0381px"
     id="text44"
     x="10.309106"
     y="100.74046"
     style="font-style:normal;font-variant:normal;font-weight:normal;font-stretch:normal;font-family:Calibri;-inkscape-font-specification:Calibri;stroke-width:0.200761">ISE Open/Close</text><text
     font-family="'Calibri Light', 'Calibri Light_MSFontService', sans-serif"
     font-weight="300"
     font-size="10.0381px"
     id="text48"
     x="18.006048"
     y="112.98691"
     style="stroke-width:0.200761;-inkscape-font-specification:Calibri;font-family:Calibri;font-weight:normal;font-style:normal;font-stretch:normal;font-variant:normal">Trade Profile</text><text
     font-family="'Calibri Light', 'Calibri Light_MSFontService', sans-serif"
     font-weight="300"
     font-size="10.0381px"
     id="text52"
     x="443.78162"
     y="125.03259"
     style="stroke-width:0.200761;-inkscape-font-specification:Calibri;font-family:Calibri;font-weight:normal;font-style:normal;font-stretch:normal;font-variant:normal">SAGE Values</text><text
     font-family="'Calibri Light', 'Calibri Light_MSFontService', sans-serif"
     font-weight="300"
     font-size="10.0381px"
     id="text58"
     x="434.63092"
     y="215.1745"
     style="stroke-width:0.200761;-inkscape-font-specification:Calibri;font-family:Calibri;font-weight:normal;font-style:normal;font-stretch:normal;font-variant:normal">Effective Spread</text><text
     font-family="'Calibri Light', 'Calibri Light_MSFontService', sans-serif"
     font-weight="300"
     font-size="10.0381px"
     id="text60"
     x="445.03836"
     y="227.42096"
     style="stroke-width:0.200761;-inkscape-font-specification:Calibri;font-family:Calibri;font-weight:normal;font-style:normal;font-stretch:normal;font-variant:normal">Calculation</text><text
     font-family="'Calibri Light', 'Calibri Light_MSFontService', sans-serif"
     font-weight="300"
     font-size="10.0381px"
     id="text64"
     x="437.6604"
     y="155.94986"
     style="stroke-width:0.200761;-inkscape-font-specification:Calibri;font-family:Calibri;font-weight:normal;font-style:normal;font-stretch:normal;font-variant:normal">Attention Maps</text><text
     font-family="'Calibri Light', 'Calibri Light_MSFontService', sans-serif"
     font-weight="300"
     font-size="10.0381px"
     id="text68"
     x="450.78418"
     y="58.58054"
     style="stroke-width:0.200761;-inkscape-font-specification:Calibri;font-family:Calibri;font-weight:normal;font-style:normal;font-stretch:normal;font-variant:normal">Accuracy</text><text
     font-family="'Calibri Light', 'Calibri Light_MSFontService', sans-serif"
     font-weight="300"
     font-size="10.0381px"
     id="text72"
     x="314.68597"
     y="216.17831"
     style="font-style:normal;font-variant:normal;font-weight:normal;font-stretch:normal;font-family:Calibri;-inkscape-font-specification:Calibri;stroke-width:0.200761">Lee &amp; Ready</text><text
     font-family="'Calibri Light', 'Calibri Light_MSFontService', sans-serif"
     font-weight="300"
     font-size="10.0381px"
     id="text76"
     x="168.46745"
     y="101.76068"
     style="font-style:normal;font-variant:normal;font-weight:normal;font-stretch:normal;font-family:Calibri;-inkscape-font-specification:Calibri;stroke-width:0.200761">Data Pre-Processing</text><text
     font-family="'Calibri Light', 'Calibri Light_MSFontService', sans-serif"
     font-weight="300"
     font-size="10.0381px"
     id="text88"
     x="89.971664"
     y="102.15399"
     style="font-style:normal;font-variant:normal;font-weight:normal;font-stretch:normal;font-family:Calibri;-inkscape-font-specification:Calibri;stroke-width:0.200761">Data Collection</text><text
     font-family="'Calibri Light', 'Calibri Light_MSFontService', sans-serif"
     font-weight="300"
     font-size="11.0419px"
     id="text94"
     x="300.79929"
     y="57.576736"
     style="stroke-width:0.200761;-inkscape-font-specification:Calibri;font-family:Calibri;font-weight:normal;font-style:normal;font-stretch:normal;font-variant:normal">Gradient Boosting</text><text
     font-family="'Calibri Light', 'Calibri Light_MSFontService', sans-serif"
     font-weight="300"
     font-size="11.0419px"
     id="text98"
     x="300.57645"
     y="84.880302"
     style="stroke-width:0.200761;-inkscape-font-specification:Calibri;font-family:Calibri;font-weight:normal;font-style:normal;font-stretch:normal;font-variant:normal">Gradient Boosting </text><text
     font-family="'Calibri Light', 'Calibri Light_MSFontService', sans-serif"
     font-weight="300"
     font-size="11.0419px"
     id="text100"
     x="301.17874"
     y="98.130562"
     style="stroke-width:0.200761;-inkscape-font-specification:Calibri;font-family:Calibri;font-weight:normal;font-style:normal;font-stretch:normal;font-variant:normal">With Self-Training</text><text
     font-family="'Calibri Light', 'Calibri Light_MSFontService', sans-serif"
     font-weight="300"
     font-size="10.0381px"
     id="text106"
     x="425.42599"
     y="98.732841"
     style="font-style:normal;font-variant:normal;font-weight:normal;font-stretch:normal;font-family:Calibri;-inkscape-font-specification:Calibri;stroke-width:0.200761">Feature Importance </text><text
     font-family="'Calibri Light', 'Calibri Light_MSFontService', sans-serif"
     font-weight="300"
     font-size="10.0381px"
     id="text110"
     x="425.53241"
     y="33.284595"
     style="font-style:normal;font-variant:normal;font-weight:normal;font-stretch:normal;font-family:Calibri;-inkscape-font-specification:Calibri;stroke-width:0.200761">Metrics </text><text
     font-family="'Calibri Light', 'Calibri Light_MSFontService', sans-serif"
     font-weight="300"
     font-size="10.0381px"
     id="text116"
     x="314.73013"
     y="124.22955"
     style="stroke-width:0.200761;-inkscape-font-specification:Calibri;font-family:Calibri;font-weight:normal;font-style:normal;font-stretch:normal;font-variant:normal">Transformer</text><text
     font-family="'Calibri Light', 'Calibri Light_MSFontService', sans-serif"
     font-weight="300"
     font-size="10.0381px"
     id="text120"
     x="314.45911"
     y="153.13921"
     style="stroke-width:0.200761;-inkscape-font-specification:Calibri;font-family:Calibri;font-weight:normal;font-style:normal;font-stretch:normal;font-variant:normal">Transformer </text><text
     font-family="'Calibri Light', 'Calibri Light_MSFontService', sans-serif"
     font-weight="300"
     font-size="10.0381px"
     id="text122"
     x="303.93719"
     y="165.38565"
     style="stroke-width:0.200761;-inkscape-font-specification:Calibri;font-family:Calibri;font-weight:normal;font-style:normal;font-stretch:normal;font-variant:normal">With Pre-Training</text><text
     font-family="'Calibri Light', 'Calibri Light_MSFontService', sans-serif"
     font-weight="300"
     font-size="10.0381px"
     id="text130"
     x="336.42441"
     y="246.09177"
     style="stroke-width:0.200761;-inkscape-font-specification:Calibri;font-family:Calibri;font-weight:normal;font-style:normal;font-stretch:normal;font-variant:normal">…</text><text
     font-family="'Calibri Light', 'Calibri Light_MSFontService', sans-serif"
     font-weight="300"
     font-size="10.0381px"
     id="text132"
     x="293.47552"
     y="193.69302"
     style="stroke-width:0.200761;-inkscape-font-specification:Calibri;font-family:Calibri;font-weight:normal;font-style:normal;font-stretch:normal;font-variant:normal">Classical</text><text
     font-family="'Calibri Light', 'Calibri Light_MSFontService', sans-serif"
     font-weight="300"
     font-size="10.0381px"
     id="text136"
     x="294.02762"
     y="32.481552"
     style="stroke-width:0.200761;-inkscape-font-specification:Calibri;font-family:Calibri;font-weight:normal;font-style:normal;font-stretch:normal;font-variant:normal">Machine Learning</text><text
     font-family="'Calibri Light', 'Calibri Light_MSFontService', sans-serif"
     font-weight="300"
     font-size="10.0381px"
     id="text140"
     x="422.52701"
     y="194.49608"
     style="font-style:normal;font-variant:normal;font-weight:normal;font-stretch:normal;font-family:Calibri;-inkscape-font-specification:Calibri;stroke-width:0.200761">Application Study</text><text
     font-family="'Calibri Light', 'Calibri Light_MSFontService', sans-serif"
     font-weight="300"
     font-size="10.0381px"
     id="text144"
     x="7.490159"
     y="15.416825"
     style="stroke-width:0.200761;-inkscape-font-specification:Calibri;font-family:Calibri;font-weight:normal;font-style:normal;font-stretch:normal;font-variant:normal">Data and Data </text><text
     font-family="'Calibri Light', 'Calibri Light_MSFontService', sans-serif"
     font-weight="300"
     font-size="10.0381px"
     id="text148"
     x="420.45715"
     y="11.401595"
     style="stroke-width:0.200761;-inkscape-font-specification:Calibri;font-family:Calibri;font-weight:normal;font-style:normal;font-stretch:normal;font-variant:normal">Evaluation</text><text
     font-family="'Calibri Light', 'Calibri Light_MSFontService', sans-serif"
     font-weight="300"
     font-size="10.0381px"
     id="text150"
     x="285.74619"
     y="11.401595"
     style="stroke-width:0.200761;-inkscape-font-specification:Calibri;font-family:Calibri;font-weight:normal;font-style:normal;font-stretch:normal;font-variant:normal">Training and Tuning</text></svg>
