<svg width="1272" height="2146" xmlns="http://www.w3.org/2000/svg" xmlns:xlink="http://www.w3.org/1999/xlink" xml:space="preserve" overflow="hidden"><defs><clipPath id="clip0"><rect x="1463" y="139" width="1272" height="2146"/></clipPath></defs><g clip-path="url(#clip0)" transform="translate(-1463 -139)"><path d="M1666.5 2108.85C1666.5 2098.71 1674.71 2090.5 1684.85 2090.5L2278.15 2090.5C2288.29 2090.5 2296.5 2098.71 2296.5 2108.85L2296.5 2190.15C2296.5 2200.29 2288.29 2208.5 2278.15 2208.5L1684.85 2208.5C1674.71 2208.5 1666.5 2200.29 1666.5 2190.15Z" stroke="#000000" stroke-width="6.875" stroke-miterlimit="8" fill="#EDAECD" fill-rule="evenodd"/><text font-family="Calibri Light,Calibri Light_MSFontService,sans-serif" font-weight="300" font-size="55" transform="matrix(1 0 0 1 1791.2 2167)">Input Embedding</text><path d="M1780.5 1637.15C1780.5 1622.98 1791.99 1611.5 1806.15 1611.5L2172.85 1611.5C2187.02 1611.5 2198.5 1622.98 2198.5 1637.15L2198.5 1750.85C2198.5 1765.02 2187.02 1776.5 2172.85 1776.5L1806.15 1776.5C1791.99 1776.5 1780.5 1765.02 1780.5 1750.85Z" stroke="#000000" stroke-width="6.875" stroke-miterlimit="8" fill="#EFABAA" fill-rule="evenodd"/><text font-family="Calibri Light,Calibri Light_MSFontService,sans-serif" font-weight="300" font-size="55" transform="matrix(1 0 0 1 1864.24 1679)">Multi</text><text font-family="Calibri Light,Calibri Light_MSFontService,sans-serif" font-weight="300" font-size="55" transform="matrix(1 0 0 1 1981.69 1679)">-</text><text font-family="Calibri Light,Calibri Light_MSFontService,sans-serif" font-weight="300" font-size="55" transform="matrix(1 0 0 1 1998.3 1679)">Head</text><text font-family="Calibri Light,Calibri Light_MSFontService,sans-serif" font-weight="300" font-size="55" transform="matrix(1 0 0 1 1836.56 1745)">Self</text><text font-family="Calibri Light,Calibri Light_MSFontService,sans-serif" font-weight="300" font-size="55" transform="matrix(1 0 0 1 1916.77 1745)">-</text><text font-family="Calibri Light,Calibri Light_MSFontService,sans-serif" font-weight="300" font-size="55" transform="matrix(1 0 0 1 1933.38 1745)">Attention</text><path d="M1778.5 1496.18C1778.5 1488.63 1784.63 1482.5 1792.18 1482.5L2184.82 1482.5C2192.38 1482.5 2198.5 1488.63 2198.5 1496.18L2198.5 1556.82C2198.5 1564.37 2192.38 1570.5 2184.82 1570.5L1792.18 1570.5C1784.63 1570.5 1778.5 1564.37 1778.5 1556.82Z" stroke="#000000" stroke-width="6.875" stroke-miterlimit="8" fill="#CCD497" fill-rule="evenodd"/><text font-family="Calibri Light,Calibri Light_MSFontService,sans-serif" font-weight="300" font-size="50" transform="matrix(1 0 0 1 1861.09 1543)">Add &amp; Norm</text><path d="M1779.5 1282C1779.5 1271.78 1787.78 1263.5 1798 1263.5L2181 1263.5C2191.22 1263.5 2199.5 1271.78 2199.5 1282L2199.5 1364C2199.5 1374.22 2191.22 1382.5 2181 1382.5L1798 1382.5C1787.78 1382.5 1779.5 1374.22 1779.5 1364Z" stroke="#000000" stroke-width="6.875" stroke-miterlimit="8" fill="#A8D1EE" fill-rule="evenodd"/><text font-family="Calibri Light,Calibri Light_MSFontService,sans-serif" font-weight="300" font-size="50" transform="matrix(1 0 0 1 1849.63 1339)">Feed Forward</text><path d="M1777.5 1099.03C1777.5 1091.56 1783.56 1085.5 1791.03 1085.5L2183.97 1085.5C2191.44 1085.5 2197.5 1091.56 2197.5 1099.03L2197.5 1158.97C2197.5 1166.44 2191.44 1172.5 2183.97 1172.5L1791.03 1172.5C1783.56 1172.5 1777.5 1166.44 1777.5 1158.97Z" stroke="#000000" stroke-width="6.875" stroke-miterlimit="8" fill="#CCD497" fill-rule="evenodd"/><text font-family="Calibri Light,Calibri Light_MSFontService,sans-serif" font-weight="300" font-size="50" transform="matrix(1 0 0 1 1860.23 1145)">Add &amp; Norm</text><path d="M1981.14 2284.68 1980.5 2234.44 1985.08 2234.39 1985.72 2284.62ZM1969.1 2239.17 1982.5 2211.5 1996.6 2238.82Z"/><path d="M2.29158-0.0196039 2.95447 77.4677-1.6287 77.5069-2.29158 0.0196039ZM14.3732 72.7865 0.858924 100.403-13.1258 73.0218Z" transform="matrix(1 0 0 -1 1988.5 1482.9)"/><path d="M1986.93 1263.64 1985.64 1195.46 1990.22 1195.37 1991.51 1263.55ZM1974.27 1200.25 1987.5 1172.5 2001.77 1199.74Z"/><path d="M1987.07 1611.3 1986.69 1593.46 1991.27 1593.36 1991.65 1611.2ZM1975.33 1598.28 1988.5 1570.5 2002.83 1597.7Z"/><path d="M0 2.29167-5.67409 2.29167-3.38242 0-3.38242 275.225-5.67409 272.934 314.352 272.934 312.061 275.225 312.061 234.323 316.644 234.323 316.644 277.517-7.96576 277.517-7.96576-2.29167 0-2.29167ZM300.602 238.906 314.352 211.406 328.102 238.906Z" transform="matrix(-1.83697e-16 -1 -1 1.83697e-16 1988.91 1442.85)"/><path d="M0-2.29167 193.25-2.29167 193.25 266.835 190.958 264.543 563.249 264.543 560.957 266.835 560.957 226.159 565.541 226.159 565.541 269.126 188.667 269.126 188.667 0 190.958 2.29167 0 2.29167ZM549.499 230.742 563.249 203.242 576.999 230.742Z" transform="matrix(-1.83697e-16 -1 -1 1.83697e-16 1981.74 2089.75)"/><text font-family="Calibri Light,Calibri Light_MSFontService,sans-serif" font-weight="300" font-size="64" transform="matrix(1 0 0 1 1501.5 1445)">N</text><text font-family="Calibri Light,Calibri Light_MSFontService,sans-serif" font-weight="300" font-size="64" transform="matrix(1 0 0 1 1542.18 1445)">×</text><path d="M1979.91 1873.6 1876.21 1873.6 1876.21 1801.42 1880.79 1801.42 1880.79 1871.31 1878.5 1869.02 1979.91 1869.02ZM1864.75 1806 1878.5 1778.5 1892.25 1806Z"/><path d="M0-2.29167 109.708-2.29167 109.856 69.043 105.273 69.0525 105.13 0.00474959 107.421 2.29167 0 2.29167ZM121.165 64.0373 108.28 91.9532 93.678 64.8959Z" transform="matrix(1 0 0 -1 1981.5 1872.45)"/><path d="M2.29167-6.87416e-06 2.29196 97.3955-2.29137 97.3955-2.29167 6.87416e-06ZM13.7503 92.8121 0.000360892 120.312-13.7497 92.8122Z" transform="matrix(1 0 0 -1 1980.5 1898.81)"/><text font-family="Calibri Light,Calibri Light_MSFontService,sans-serif" font-weight="300" font-size="50" transform="matrix(1 0 0 1 2033.45 1830)">V</text><text font-family="Calibri Light,Calibri Light_MSFontService,sans-serif" font-weight="300" font-size="50" transform="matrix(1 0 0 1 1819.47 1827)">K</text><text font-family="Calibri Light,Calibri Light_MSFontService,sans-serif" font-weight="300" font-size="50" transform="matrix(1 0 0 1 1926.89 1828)">Q</text><text font-family="Calibri Light,Calibri Light_MSFontService,sans-serif" font-weight="300" font-size="64" transform="matrix(1 0 0 1 2147.22 218)">Output</text><text font-family="Calibri Light,Calibri Light_MSFontService,sans-serif" font-weight="300" font-size="64" transform="matrix(1 0 0 1 2080.28 295)">Probabilities</text><path d="M1793.5 848.627C1793.5 841.929 1798.93 836.5 1805.63 836.5L2665.37 836.5C2672.07 836.5 2677.5 841.929 2677.5 848.627L2677.5 902.373C2677.5 909.07 2672.07 914.5 2665.37 914.5L1805.63 914.5C1798.93 914.5 1793.5 909.07 1793.5 902.373Z" stroke="#000000" stroke-width="6.875" stroke-miterlimit="8" fill="#E4D6EA" fill-rule="evenodd"/><text font-family="Calibri Light,Calibri Light_MSFontService,sans-serif" font-weight="300" font-size="50" transform="matrix(1 0 0 1 2106.39 892)">Concatenate</text><path d="M2311.5 1101.25C2311.5 1094.21 2317.21 1088.5 2324.25 1088.5L2718.75 1088.5C2725.79 1088.5 2731.5 1094.21 2731.5 1101.25L2731.5 1157.75C2731.5 1164.79 2725.79 1170.5 2718.75 1170.5L2324.25 1170.5C2317.21 1170.5 2311.5 1164.79 2311.5 1157.75Z" stroke="#000000" stroke-width="6.875" stroke-miterlimit="8" fill="#CCD497" fill-rule="evenodd"/><text font-family="Calibri Light,Calibri Light_MSFontService,sans-serif" font-weight="300" font-size="50" transform="matrix(1 0 0 1 2463.27 1146)">Norm</text><path d="M2.29167-4.81916e-06 2.29198 148.699-2.29135 148.699-2.29167 4.81916e-06ZM13.7503 144.116 0.000360892 171.616-13.7497 144.116Z" transform="matrix(1 0 0 -1 2521.5 1088.12)"/><path d="M2025.5 672.846C2025.5 662.714 2033.71 654.5 2043.85 654.5L2427.15 654.5C2437.29 654.5 2445.5 662.714 2445.5 672.846L2445.5 754.154C2445.5 764.286 2437.29 772.5 2427.15 772.5L2043.85 772.5C2033.71 772.5 2025.5 764.286 2025.5 754.154Z" stroke="#000000" stroke-width="6.875" stroke-miterlimit="8" fill="#A8D1EE" fill-rule="evenodd"/><text font-family="Calibri Light,Calibri Light_MSFontService,sans-serif" font-weight="300" font-size="50" transform="matrix(1 0 0 1 2095.5 730)">Feed Forward</text><path d="M2025.5 523.026C2025.5 515.556 2031.56 509.5 2039.03 509.5L2431.97 509.5C2439.44 509.5 2445.5 515.556 2445.5 523.026L2445.5 582.974C2445.5 590.444 2439.44 596.5 2431.97 596.5L2039.03 596.5C2031.56 596.5 2025.5 590.444 2025.5 582.974Z" stroke="#000000" stroke-width="6.875" stroke-miterlimit="8" fill="#FFFF99" fill-rule="evenodd"/><text font-family="Calibri Light,Calibri Light_MSFontService,sans-serif" font-weight="300" font-size="50" transform="matrix(1 0 0 1 2172.85 569)">Linear</text><path d="M2023.5 385.181C2023.5 377.625 2029.63 371.5 2037.18 371.5L2429.82 371.5C2437.37 371.5 2443.5 377.625 2443.5 385.181L2443.5 445.819C2443.5 453.375 2437.37 459.5 2429.82 459.5L2037.18 459.5C2029.63 459.5 2023.5 453.375 2023.5 445.819Z" stroke="#000000" stroke-width="6.875" stroke-miterlimit="8" fill="#D2C4B2" fill-rule="evenodd"/><text font-family="Calibri Light,Calibri Light_MSFontService,sans-serif" font-weight="300" font-size="50" transform="matrix(1 0 0 1 2150.22 432)">Softmax</text><path d="M2232.93 509.423 2232 482.482 2236.58 482.324 2237.51 509.265ZM2220.71 487.458 2233.5 459.5 2248.19 486.51Z"/><path d="M2.29167-1.43705e-05 2.29188 34.6348-2.29145 34.6349-2.29167 1.43705e-05ZM13.7502 30.0514 0.000360892 57.5515-13.7498 30.0516Z" transform="matrix(1 0 0 -1 2235.5 654.051)"/><path d="M2.29167-1.30444e-05 2.2919 40.4856-2.29144 40.4856-2.29167 1.30444e-05ZM13.7502 35.9022 0.000360892 63.4023-13.7498 35.9024Z" transform="matrix(1 0 0 -1 2235.5 835.902)"/><path d="M2.29167-4.79572e-06 2.29198 149.538-2.29135 149.538-2.29167 4.79572e-06ZM13.7503 144.955 0.000360892 172.455-13.7497 144.955Z" transform="matrix(1 0 0 -1 1987.5 1084.96)"/><path d="M2527.21 2279.87 2519.37 1193.43 2523.96 1193.4 2531.79 2279.84ZM2507.95 1198.1 2521.5 1170.5 2535.45 1197.9Z"/></g></svg>